<?xml version="1.0" encoding="UTF-8"?>
<svg version="1.1" xmlns="http://www.w3.org/2000/svg" width="511" height="511">
<path d="M0 0 C168.63 0 337.26 0 511 0 C511 168.63 511 337.26 511 511 C342.37 511 173.74 511 0 511 C0 342.37 0 173.74 0 0 Z " fill="#312E4D" transform="translate(0,0)"/>
<path d="M0 0 C2.97 0 5.94 0 9 0 C9 41.25 9 82.5 9 125 C142.65 125 276.3 125 414 125 C414 84.08 414 43.16 414 1 C416.31 1 418.62 1 421 1 C421 40.27 421 79.54 421 120 C435.85 120 450.7 120 466 120 C466 204.15 466 288.3 466 375 C297.37 375 128.74 375 -45 375 C-45 290.85 -45 206.7 -45 120 C-30.15 120 -15.3 120 0 120 C0 80.4 0 40.8 0 0 Z " fill="#010101" transform="translate(45,136)"/>
<path d="M0 0 C133.32 0 266.64 0 404 0 C404 41.25 404 82.5 404 125 C270.68 125 137.36 125 0 125 C0 83.75 0 42.5 0 0 Z " fill="#27A7DE" transform="translate(54,136)"/>
<path d="M0 0 C4.49157374 0.73502685 6.1315461 1.6989311 9.125 5.1875 C9.89328125 6.08082031 10.6615625 6.97414062 11.453125 7.89453125 C16.09000024 13.50016913 20.56830233 19.23152795 25 25 C25.60070312 25.75539062 26.20140625 26.51078125 26.8203125 27.2890625 C28 29 28 29 28 31 C28.66 31 29.32 31 30 31 C34 35.35294118 34 35.35294118 34 39 C34.66 39 35.32 39 36 39 C37.69140625 40.609375 37.69140625 40.609375 39.5625 42.75 C40.18253906 43.44609375 40.80257812 44.1421875 41.44140625 44.859375 C42.98531094 46.97982555 43.57896851 48.43920573 44 51 C44.66 51 45.32 51 46 51 C46.598125 51.825 47.19625 52.65 47.8125 53.5 C49.72246238 56.22688424 49.72246238 56.22688424 52.43359375 56.36328125 C55.61633047 55.91275687 56.27776048 55.17272101 58.25 52.6875 C58.83523437 51.96691406 59.42046875 51.24632812 60.0234375 50.50390625 C60.67570312 49.67761719 61.32796875 48.85132813 62 48 C63.62470184 46.0414193 65.24970745 44.08309054 66.875 42.125 C69.72135157 38.74616335 69.72135157 38.74616335 72 35 C72.66 35 73.32 35 74 35 C74.99 32.525 74.99 32.525 76 30 C76.66 30 77.32 30 78 30 C78.37125 28.9171875 78.37125 28.9171875 78.75 27.8125 C80.12269592 24.72393418 81.72353296 22.48988582 84 20 C84.66 20 85.32 20 86 20 C86.2371875 19.45859375 86.474375 18.9171875 86.71875 18.359375 C88.34347757 15.36749863 90.3501877 12.88840601 92.5 10.25 C93.2940625 9.26515625 94.088125 8.2803125 94.90625 7.265625 C95.5971875 6.51796875 96.288125 5.7703125 97 5 C97.66 5 98.32 5 99 5 C99.66 3.35 100.32 1.7 101 0 C102.65 0 104.3 0 106 0 C106.06942445 13.11691838 106.12277285 26.23379325 106.15543652 39.35085773 C106.1711112 45.44124643 106.19238249 51.53150968 106.22631836 57.62182617 C106.25884731 63.49622523 106.27683942 69.37050343 106.28463173 75.24498558 C106.29018686 77.48935029 106.30103426 79.73370818 106.31719017 81.97802162 C106.3388783 85.11480782 106.34197051 88.25109069 106.34057617 91.38793945 C106.351362 92.32157822 106.36214783 93.25521698 106.3732605 94.21714783 C106.36913651 95.07110138 106.36501251 95.92505493 106.36076355 96.80488586 C106.36352893 97.54692922 106.36629431 98.28897257 106.36914349 99.05350208 C105.88760195 101.59267624 105.05815834 102.47072678 103 104 C100.38318083 104.27130901 98.04478968 104.37416721 95.4375 104.3125 C94.75236328 104.31572266 94.06722656 104.31894531 93.36132812 104.32226562 C88.26727586 104.26727586 88.26727586 104.26727586 86 102 C85.75949097 99.89926147 85.75949097 99.89926147 85.77294922 97.27490234 C85.77310028 96.29403656 85.77325134 95.31317078 85.77340698 94.30258179 C85.78372955 93.24108917 85.79405212 92.17959656 85.8046875 91.0859375 C85.8075174 90.00116119 85.81034729 88.91638489 85.81326294 87.79873657 C85.82448422 84.32404687 85.84959238 80.84961218 85.875 77.375 C85.88502728 75.02344121 85.89415357 72.6718784 85.90234375 70.3203125 C85.92442989 64.54678756 85.95792655 58.77341199 86 53 C85.01 53 84.02 53 83 53 C82.77441406 53.53367188 82.54882812 54.06734375 82.31640625 54.6171875 C80.56997065 57.7783914 78.28137135 60.39987659 75.9375 63.125 C72.63589453 66.83107268 72.63589453 66.83107268 70 71 C69.34 71 68.68 71 68 71 C68 71.66 68 72.32 68 73 C67.34 73 66.68 73 66 73 C65.63841797 73.81210938 65.63841797 73.81210938 65.26953125 74.640625 C63.67831461 77.59783993 61.76425382 80.11130103 59.6875 82.75 C58.92824219 83.73484375 58.16898438 84.7196875 57.38671875 85.734375 C55 88 55 88 52.20703125 88.328125 C51.47871094 88.21984375 50.75039062 88.1115625 50 88 C50 87.01 50 86.02 50 85 C49.1028125 84.62875 49.1028125 84.62875 48.1875 84.25 C45.68373081 82.81927475 44.51927612 81.4308418 43 79 C43 78.34 43 77.68 43 77 C42.34 77 41.68 77 41 77 C39.56187327 75.43059199 38.1996995 73.79125965 36.875 72.125 C36.07449219 71.12726563 35.27398437 70.12953125 34.44921875 69.1015625 C32.88493951 67.1206411 31.32463331 65.13657148 29.76953125 63.1484375 C29.08246094 62.27445313 28.39539063 61.40046875 27.6875 60.5 C27.07261719 59.7059375 26.45773438 58.911875 25.82421875 58.09375 C24.03041599 56.03491001 22.2003581 54.59736029 20 53 C20.00444122 53.59468582 20.00888245 54.18937164 20.01345825 54.80207825 C20.05764875 60.98236696 20.08784858 67.1626109 20.10986328 73.34301758 C20.11993107 75.6506533 20.13358623 77.95827625 20.15087891 80.26586914 C20.17509287 83.57962191 20.18647526 86.89320626 20.1953125 90.20703125 C20.20563507 91.2414888 20.21595764 92.27594635 20.22659302 93.3417511 C20.22674408 94.3025206 20.22689514 95.2632901 20.22705078 96.25317383 C20.231492 97.09922684 20.23593323 97.94527985 20.24050903 98.81697083 C20 101 20 101 18 104 C15.42189701 104.30471206 13.13600582 104.41857771 10.5625 104.375 C9.88123047 104.38660156 9.19996094 104.39820313 8.49804688 104.41015625 C3.5116761 104.38085339 3.5116761 104.38085339 1.30355358 102.73729229 C-0.31078913 100.58580026 -0.37071577 99.47539711 -0.36076355 96.80488586 C-0.36488754 95.95093231 -0.36901154 95.09697876 -0.3732605 94.21714783 C-0.36247467 93.28350906 -0.35168884 92.3498703 -0.34057617 91.38793945 C-0.34101425 90.40239075 -0.34145233 89.41684204 -0.34190369 88.40142822 C-0.33981093 85.13851218 -0.31645653 81.87610771 -0.29296875 78.61328125 C-0.28737454 76.35312684 -0.28310362 74.09296879 -0.28010559 71.83280945 C-0.2686431 65.87985211 -0.23916366 59.92711385 -0.20599365 53.97424316 C-0.17532312 47.90147872 -0.1616067 41.82867892 -0.14648438 35.75585938 C-0.11429545 23.83714325 -0.06308201 11.91858983 0 0 Z " fill="#010203" transform="translate(186,147)"/>
<path d="M0 0 C1.64935547 0.02030273 1.64935547 0.02030273 3.33203125 0.04101562 C6.01355332 0.075992 8.69400073 0.12506928 11.375 0.1875 C11.375 0.8475 11.375 1.5075 11.375 2.1875 C12.23867187 2.13078125 13.10234375 2.0740625 13.9921875 2.015625 C17.84070573 2.21116172 20.09174847 3.17671532 23.5 4.9375 C24.51320313 5.44796875 25.52640625 5.9584375 26.5703125 6.484375 C29.29616405 8.13962747 31.19650924 9.88314089 33.375 12.1875 C34.365 12.6825 34.365 12.6825 35.375 13.1875 C35.375 13.8475 35.375 14.5075 35.375 15.1875 C35.931875 15.39375 36.48875 15.6 37.0625 15.8125 C40.3527957 17.76889204 42.21832061 20.04491004 44.375 23.1875 C44.3046875 25.7109375 44.3046875 25.7109375 43.375 28.1875 C39.47449141 31.16246418 34.93495815 32.91750724 30.125 33.75 C25.26415435 32.75573612 22.21745053 30.0504981 18.8125 26.5625 C16.37086997 24.18347587 14.5908231 23.19818726 11.375 22.1875 C11.375 21.5275 11.375 20.8675 11.375 20.1875 C1.46463477 18.66282843 -7.38669304 17.98906569 -16.6640625 22.3125 C-18.625 23.1875 -18.625 23.1875 -20.625 23.1875 C-20.625 23.8475 -20.625 24.5075 -20.625 25.1875 C-22.27502828 26.54136936 -23.9424387 27.87428142 -25.625 29.1875 C-25.955 29.8475 -26.285 30.5075 -26.625 31.1875 C-27.285 31.1875 -27.945 31.1875 -28.625 31.1875 C-34.02799236 41.16225512 -36.61592189 52.0381306 -33.87109375 63.2734375 C-32.06487005 68.44419555 -29.80761954 72.75456563 -26.625 77.1875 C-26.625 77.8475 -26.625 78.5075 -26.625 79.1875 C-25.7896875 79.55875 -25.7896875 79.55875 -24.9375 79.9375 C-22.625 81.1875 -22.625 81.1875 -20.4375 83.125 C-12.70162926 88.79797188 -3.95074989 89.0113295 5.375 88.1875 C10.01434933 87.13667666 13.67618359 85.17500556 17.375 82.1875 C18.035 82.1875 18.695 82.1875 19.375 82.1875 C19.87 80.7025 19.87 80.7025 20.375 79.1875 C23.31839947 76.30896884 26.24080125 74.38055511 30.3125 73.6875 C34.29559714 74.33780157 37.64518115 75.64412668 41.375 77.1875 C41.375 77.8475 41.375 78.5075 41.375 79.1875 C42.86 79.6825 42.86 79.6825 44.375 80.1875 C43.22137686 88.24896292 37.01247208 92.89624194 30.9375 97.8125 C17.69473795 107.26927439 3.57114965 110.35587124 -12.625 108.1875 C-18.30477195 106.83843984 -23.49915686 105.02020279 -28.625 102.1875 C-28.625 101.5275 -28.625 100.8675 -28.625 100.1875 C-29.305625 99.98125 -29.98625 99.775 -30.6875 99.5625 C-42.43015989 94.0659358 -49.98944787 80.78440031 -54.625 69.1875 C-55.83317081 64.06543453 -55.77454624 58.98243926 -55.75 53.75 C-55.75386719 52.92951172 -55.75773437 52.10902344 -55.76171875 51.26367188 C-55.7393789 37.26775285 -50.54000232 25.31178997 -40.625 15.1875 C-39.965 15.1875 -39.305 15.1875 -38.625 15.1875 C-38.625 14.5275 -38.625 13.8675 -38.625 13.1875 C-37.696875 13.06375 -37.696875 13.06375 -36.75 12.9375 C-36.04875 12.69 -35.3475 12.4425 -34.625 12.1875 C-34.34398438 11.56488281 -34.06296875 10.94226563 -33.7734375 10.30078125 C-32.29504409 7.58033623 -30.89658599 6.95378252 -28.125 5.625 C-27.3309375 5.23183594 -26.536875 4.83867187 -25.71875 4.43359375 C-16.94259307 0.89875276 -9.4724741 -0.22443894 0 0 Z " fill="#020306" transform="translate(124.625,144.8125)"/>
<path d="M0 0 C133.32 0 266.64 0 404 0 C404 41.25 404 82.5 404 125 C270.68 125 137.36 125 0 125 C0 32 0 32 2 28 C2.04022391 25.6670134 2.04320247 23.33293334 2 21 C2.33 20.34 2.66 19.68 3 19 C2.99122585 15.91149774 2.86829048 12.83581413 2.7421875 9.75 C2.82726563 8.8425 2.91234375 7.935 3 7 C6.24284779 4.83810147 7.10096221 4.75373245 10.83862305 4.77294922 C12.30980843 4.77317581 12.30980843 4.77317581 13.81071472 4.77340698 C14.86704605 4.78372955 15.92337738 4.79405212 17.01171875 4.8046875 C18.09508011 4.8075174 19.17844147 4.81034729 20.29463196 4.81326294 C23.75903308 4.82446909 27.22317685 4.84957466 30.6875 4.875 C33.03450148 4.88502923 35.381507 4.89415518 37.72851562 4.90234375 C43.48576507 4.92440984 49.24286415 4.95789173 55 5 C55.495 6.485 55.495 6.485 56 8 C53.00519083 8.8723412 50.36424089 9.10829766 47.25 9.0625 C46.45078125 9.05347656 45.6515625 9.04445312 44.828125 9.03515625 C44.22484375 9.02355469 43.6215625 9.01195312 43 9 C42.835 9.7425 42.67 10.485 42.5 11.25 C40.32325258 15.2407036 37.083477 16.30013399 33 18 C33 17.34 33 16.68 33 16 C31.68 16 30.36 16 29 16 C28.67 17.65 28.34 19.3 28 21 C27.34 21 26.68 21 26 21 C26.33 22.32 26.66 23.64 27 25 C24.69 25 22.38 25 20 25 C19.14340865 28.08084955 18.73058631 31.06792001 18.4375 34.25 C18.35371094 35.14203125 18.26992187 36.0340625 18.18359375 36.953125 C18.09271484 37.96632813 18.09271484 37.96632813 18 39 C18.33 38.01 18.66 37.02 19 36 C19.66 36 20.32 36 21 36 C20.52449439 37.48034764 20.04448784 38.95925021 19.5625 40.4375 C19.29566406 41.26121094 19.02882813 42.08492187 18.75390625 42.93359375 C18 45 18 45 17 46 C15.98285754 51.48968377 15.81692659 56.86442767 15.8125 62.4375 C15.80025391 63.24509766 15.78800781 64.05269531 15.77539062 64.88476562 C15.74019153 79.4454598 22.85369401 92.72361316 33 103 C35.37267103 104.77765539 37.75023566 106.35486667 40.3125 107.84375 C40.869375 108.2253125 41.42625 108.606875 42 109 C42 109.66 42 110.32 42 111 C42.66 111.103125 43.32 111.20625 44 111.3125 C47.18528115 112.04246026 50.0932728 113.09854973 53.1328125 114.28125 C58.32513581 116.2799686 62.86828903 116.18377925 68.375 116.1875 C69.32117188 116.19974609 70.26734375 116.21199219 71.2421875 116.22460938 C76.06045695 116.23476022 79.54870884 115.97557304 84 114 C86.13037109 114.44213867 86.13037109 114.44213867 88 115 C81.90237981 117.66421249 77.11470109 118.39757601 70.5 118.1875 C69.67757812 118.17396484 68.85515625 118.16042969 68.0078125 118.14648438 C66.00491779 118.11155016 64.00236644 118.05776057 62 118 C62 118.66 62 119.32 62 120 C61.01 120.33 60.02 120.66 59 121 C68.8331914 122.51355301 78.32998467 123.29406424 88.29393005 123.2784729 C89.6639385 123.2834921 91.03394402 123.28937256 92.40394551 123.29602563 C96.12118868 123.31164348 99.83835593 123.3152461 103.55562794 123.31667423 C107.58200817 123.32040057 111.60834826 123.33557171 115.63470459 123.34928894 C122.59493518 123.37146494 129.5551513 123.38653602 136.51540947 123.39665604 C146.57852681 123.41129798 156.64159371 123.43684995 166.70468128 123.46498732 C183.03495966 123.51035557 199.36524534 123.54701138 215.69555664 123.578125 C231.55038737 123.6083515 247.40520029 123.6427205 263.26000977 123.68261719 C264.7281808 123.68630951 264.7281808 123.68630951 266.22601186 123.69007643 C271.13671196 123.70245182 276.04741185 123.7149082 280.95811164 123.72740483 C321.63871998 123.83082326 362.31934078 123.91845903 403 124 C403 83.41 403 42.82 403 1 C270.01 1 137.02 1 0 1 C0 0.67 0 0.34 0 0 Z " fill="#487ABE" transform="translate(54,136)"/>
<path d="M0 0 C0.69948257 -0.00365067 1.39896515 -0.00730133 2.11964417 -0.01106262 C4.43149093 -0.01916814 6.74263684 -0.00556005 9.05444336 0.0090332 C10.65962219 0.00955175 12.26480166 0.00903425 13.86997986 0.00752258 C17.23340337 0.0076123 20.59658716 0.01804204 23.95996094 0.03613281 C28.27676212 0.05883835 32.59321354 0.05936081 36.91005802 0.05261517 C40.22398502 0.04927828 43.53783188 0.05589964 46.8517437 0.0657444 C48.44379698 0.06960018 50.03585917 0.07074306 51.62791634 0.06915855 C53.84977422 0.06878881 56.07117879 0.08138146 58.29296875 0.09765625 C59.55855118 0.10226364 60.82413361 0.10687103 62.12806702 0.11161804 C65.08178711 0.37231445 65.08178711 0.37231445 67.08178711 2.37231445 C67.34741211 5.3059082 67.34741211 5.3059082 67.33178711 8.80981445 C67.33952148 10.54038086 67.33952148 10.54038086 67.34741211 12.3059082 C67.08178711 15.37231445 67.08178711 15.37231445 65.08178711 18.37231445 C62.79122925 18.733078 62.79122925 18.733078 59.89770508 18.71289062 C58.27625076 18.71255074 58.27625076 18.71255074 56.62203979 18.71220398 C55.45117828 18.69672012 54.28031677 18.68123627 53.07397461 18.6652832 C51.87821808 18.66103836 50.68246155 18.65679352 49.45046997 18.65242004 C45.6190164 18.63558347 41.78808258 18.5979213 37.95678711 18.55981445 C35.36434677 18.54477409 32.77189822 18.53108457 30.17944336 18.51879883 C23.81319503 18.48821147 17.44807506 18.42949668 11.08178711 18.37231445 C11.08178711 26.62231445 11.08178711 34.87231445 11.08178711 43.37231445 C26.92178711 43.70231445 42.76178711 44.03231445 59.08178711 44.37231445 C60.56798606 47.34471236 60.2135572 50.06851023 60.20678711 53.37231445 C60.2106543 55.25950195 60.2106543 55.25950195 60.21459961 57.18481445 C60.08178711 60.37231445 60.08178711 60.37231445 59.08178711 62.37231445 C58.49518814 62.38262192 57.90858917 62.39292938 57.30421448 62.40354919 C51.22140841 62.5113864 45.13875737 62.62600201 39.05615234 62.74462891 C36.78339875 62.7880511 34.51061098 62.82972061 32.23779297 62.86962891 C28.97865479 62.92715564 25.7196898 62.99089997 22.46069336 63.0559082 C21.43778702 63.0726207 20.41488068 63.08933319 19.36097717 63.10655212 C18.42007736 63.12649734 17.47917755 63.14644257 16.50976562 63.16699219 C15.67703629 63.18253647 14.84430695 63.19808075 13.98634338 63.21409607 C12.07212126 63.16660059 12.07212126 63.16660059 11.08178711 64.37231445 C10.93386244 67.2314925 10.84668991 70.06955441 10.80053711 72.9309082 C10.78212769 73.79039566 10.76371826 74.64988312 10.74475098 75.53541565 C10.68581022 78.29347686 10.63308264 81.05160107 10.58178711 83.80981445 C10.51426423 87.43364767 10.44056563 91.05727684 10.36303711 94.6809082 C10.34946167 95.52052597 10.33588623 96.36014374 10.32189941 97.22520447 C10.19456488 103.14675891 10.19456488 103.14675891 9.08178711 105.37231445 C6.28954638 105.45303233 3.49962145 105.51266854 0.70678711 105.55981445 C-0.08727539 105.58495117 -0.88133789 105.61008789 -1.69946289 105.63598633 C-3.77407437 105.66235851 -5.84922154 105.52717908 -7.91821289 105.37231445 C-9.95653556 102.31483045 -10.16915135 101.71186099 -10.1789093 98.27331543 C-10.18599411 97.44052567 -10.19307892 96.6077359 -10.20037842 95.74971008 C-10.197901 94.83948593 -10.19542358 93.92926178 -10.19287109 92.99145508 C-10.19798203 92.03023239 -10.20309296 91.0690097 -10.20835876 90.07865906 C-10.2222809 86.8952312 -10.22129618 83.71201917 -10.21899414 80.52856445 C-10.22287928 78.32043375 -10.22721357 76.11230379 -10.23197937 73.9041748 C-10.23944697 69.27390114 -10.23914612 64.64370373 -10.23388672 60.01342773 C-10.22808769 54.07125207 -10.24503111 48.12938766 -10.26823139 42.18726349 C-10.28294077 37.62687344 -10.28384431 33.06655886 -10.28072166 28.50614929 C-10.28123616 26.31482832 -10.28649786 24.12350326 -10.29653358 21.9322052 C-10.3088281 18.87232031 -10.30214856 15.81304842 -10.29052734 12.75317383 C-10.29817108 11.84294968 -10.30581482 10.93272552 -10.31369019 9.99491882 C-10.30667587 9.16212906 -10.29966156 8.32933929 -10.29243469 7.47131348 C-10.29260243 6.74791527 -10.29277018 6.02451706 -10.292943 5.27919769 C-9.19846455 -0.29025764 -4.82492169 -0.00239812 0 0 Z " fill="#010407" transform="translate(324.918212890625,145.627685546875)"/>
<path d="M0 0 C2.61041815 0.4266053 3.16983275 1.44290745 5.0078125 3.328125 C7.28409535 4.61459563 9.55468023 5.83189856 11.8828125 7.015625 C18.18811474 10.28737457 24.21774539 13.84133914 30.203125 17.6640625 C32.7695226 19.18674408 35.23230883 20.25921202 38.0078125 21.328125 C44.31288099 24.81353553 50.14541704 29.15957741 56.0078125 33.328125 C55.44996625 38.88366236 55.44996625 38.88366236 53.51171875 40.83203125 C52.87105469 41.18136719 52.23039062 41.53070313 51.5703125 41.890625 C50.84972656 42.29410156 50.12914062 42.69757813 49.38671875 43.11328125 C46.0831175 44.80034199 42.76645825 46.45743618 39.43359375 48.0859375 C36.58812513 49.54303737 33.94858275 51.2167015 31.265625 52.94921875 C28.42971071 54.68118716 25.50888193 56.21452396 22.5703125 57.765625 C18.63910882 59.85379324 14.86741211 61.99979205 11.1953125 64.515625 C1.02591295 71.45693992 1.02591295 71.45693992 -3.9296875 71.140625 C-5.9921875 70.328125 -5.9921875 70.328125 -6.9921875 69.328125 C-7.09166943 67.21674599 -7.12018388 65.10200214 -7.12158203 62.98828125 C-7.12421051 61.99560745 -7.12421051 61.99560745 -7.12689209 60.98287964 C-7.13130967 58.7854351 -7.12837297 56.58807042 -7.125 54.390625 C-7.12567307 52.86987289 -7.12664311 51.34912088 -7.12789917 49.82836914 C-7.12937601 46.63719664 -7.12722202 43.44605208 -7.12255859 40.25488281 C-7.1168613 36.1554797 -7.12014038 32.05614204 -7.12613106 27.95674133 C-7.12973704 24.81530256 -7.12859792 21.67387942 -7.12600327 18.53244019 C-7.1253341 17.02049756 -7.12616207 15.50855354 -7.12848282 13.99661255 C-7.13100995 11.88702613 -7.12716794 9.77754713 -7.12158203 7.66796875 C-7.12078644 6.46519287 -7.11999084 5.26241699 -7.11917114 4.02319336 C-6.88611955 -0.92303404 -4.41285215 0.16283587 0 0 Z " fill="#AD2141" transform="translate(336.9921875,280.671875)"/>
<path d="M0 0 C1.02770508 0.00483398 1.02770508 0.00483398 2.07617188 0.00976562 C3.09807617 -0.0144043 3.09807617 -0.0144043 4.140625 -0.0390625 C9.14727944 -0.04396618 9.14727944 -0.04396618 11.33427715 1.58598995 C12.93878267 3.72174215 13.01350121 4.8145103 13.01289368 7.46595764 C13.02341515 8.72993126 13.02341515 8.72993126 13.03414917 10.0194397 C13.02650543 10.94058563 13.01886169 11.86173157 13.01098633 12.81079102 C13.01463699 13.78337357 13.01828766 14.75595612 13.02204895 15.75801086 C13.03016742 18.97882445 13.01653433 22.19913702 13.00195312 25.41992188 C13.00143472 27.65286763 13.00195167 29.88581385 13.00346375 32.11875916 C13.00337397 36.80035202 12.99293203 41.48177288 12.97485352 46.16333008 C12.95215315 52.17505894 12.95162403 58.18653662 12.95837116 64.19829655 C12.96170655 68.80926256 12.95508938 73.42017093 12.94524193 78.03112602 C12.9413832 80.24838395 12.94024448 82.46564829 12.94182777 84.68290901 C12.94219711 87.77644278 12.92961572 90.86964989 12.91333008 93.96313477 C12.9158075 94.88630493 12.91828491 95.8094751 12.9208374 96.76062012 C12.91021019 98.020364 12.91021019 98.020364 12.89936829 99.30555725 C12.89731542 100.0372516 12.89526255 100.76894594 12.89314747 101.52281284 C12.63867188 103.32226562 12.63867188 103.32226562 10.63867188 105.32226562 C7.92645938 105.54730912 5.34994002 105.64661557 2.63867188 105.63476562 C1.90132813 105.65087891 1.16398437 105.66699219 0.40429688 105.68359375 C-1.73632812 105.68554688 -1.73632812 105.68554688 -5.36132812 105.32226562 C-7.40881709 102.25103218 -7.61173189 101.63821622 -7.61529541 98.17857361 C-7.62093506 97.33592453 -7.62657471 96.49327545 -7.63238525 95.62509155 C-7.62833679 94.70394562 -7.62428833 93.78279968 -7.62011719 92.83374023 C-7.62362183 91.86115768 -7.62712646 90.88857513 -7.6307373 89.88652039 C-7.63955317 86.66581118 -7.63370637 83.44532089 -7.62695312 80.22460938 C-7.62829971 77.99166318 -7.63024018 75.75871728 -7.63275146 73.52577209 C-7.63570244 68.84422008 -7.63140547 64.16274433 -7.62207031 59.48120117 C-7.61066925 53.46948403 -7.61723962 47.45794532 -7.62921524 41.4462347 C-7.6364289 36.83527777 -7.6341483 32.22436342 -7.62895966 27.61340523 C-7.62762213 25.39614402 -7.62927445 23.17887899 -7.63391876 20.96162224 C-7.63897657 17.86810885 -7.63128451 14.77488798 -7.62011719 11.68139648 C-7.62416565 10.75822632 -7.62821411 9.83505615 -7.63238525 8.88391113 C-7.62674561 8.04408188 -7.62110596 7.20425262 -7.61529541 6.338974 C-7.61454136 5.60727965 -7.61378731 4.87558531 -7.61301041 4.12171841 C-6.99381195 -0.30536471 -3.7253824 0.04021512 0 0 Z " fill="#010103" transform="translate(418.361328125,145.677734375)"/>
<path d="M0 0 C35.2 0 35.2 0 44 7 C46.91554748 9.93134991 49.62439855 12.7431836 50 17 C50.12375 18.216875 50.2475 19.43375 50.375 20.6875 C50.32715511 25.77819682 48.08626329 30.02697937 45 34 C44.01 34.33 43.02 34.66 42 35 C42 35.66 42 36.32 42 37 C36.72745919 40.76610058 31.94689499 41.1277104 25.60546875 41.09765625 C24.52160889 41.09515869 23.43774902 41.09266113 22.32104492 41.09008789 C20.9569751 41.08098389 19.59290527 41.07187988 18.1875 41.0625 C11.6596875 41.0315625 11.6596875 41.0315625 5 41 C5 51.56 5 62.12 5 73 C3.35 73 1.7 73 0 73 C0 48.91 0 24.82 0 0 Z " fill="#070707" transform="translate(190,279)"/>
<path d="M0 0 C133.32 0 266.64 0 404 0 C404 41.25 404 82.5 404 125 C270.68 125 137.36 125 0 125 C0 104.87 0 84.74 0 64 C0.33 64 0.66 64 1 64 C1.16763742 69.21424594 1.32819469 74.42864348 1.48217773 79.64331055 C1.53556608 81.41745885 1.59089298 83.19154991 1.64819336 84.96557617 C1.73019269 87.51468565 1.80523144 90.06391928 1.87890625 92.61328125 C1.90594131 93.40712723 1.93297638 94.20097321 1.96083069 95.01887512 C2.05004432 98.30636716 2.04883406 100.85349781 1 104 C1.66 104.33 2.32 104.66 3 105 C3 109.95 3 114.9 3 120 C5.31 120.33 7.62 120.66 10 121 C10 121.66 10 122.32 10 123 C11.08410156 122.835 12.16820313 122.67 13.28515625 122.5 C19.64929513 121.70465767 26.0235934 121.95534458 32.42382812 122.0390625 C38.37930271 122.08642214 44.09397504 121.78176959 50 121 C49.34 120.01 48.68 119.02 48 118 C49.98 117.505 49.98 117.505 52 117 C51.13375 116.731875 50.2675 116.46375 49.375 116.1875 C46 115 46 115 43 113.4375 C39.93936408 111.97094529 37.35300125 111.39916682 34 111 C34 109.02 34 107.04 34 105 C30.535 104.505 30.535 104.505 27 104 C26.49596232 102.70990357 25.99690074 101.41786211 25.5 100.125 C25.2215625 99.40570313 24.943125 98.68640625 24.65625 97.9453125 C24 96 24 96 24 94 C23.01 94 22.02 94 21 94 C19.6031898 91.57886233 18.97053748 89.79797132 18.5625 87 C17.95329262 83.75089397 17.03561572 82.52416349 15 80 C11.43757683 72.49071951 12.79328165 63.99450907 14 56 C14.33 56 14.66 56 15 56 C15.04898438 57.0621875 15.09796875 58.124375 15.1484375 59.21875 C16.01329134 76.37574478 20.45878008 90.29799521 33 103 C35.37267103 104.77765539 37.75023566 106.35486667 40.3125 107.84375 C40.869375 108.2253125 41.42625 108.606875 42 109 C42 109.66 42 110.32 42 111 C42.66 111.103125 43.32 111.20625 44 111.3125 C47.18528115 112.04246026 50.0932728 113.09854973 53.1328125 114.28125 C58.32513581 116.2799686 62.86828903 116.18377925 68.375 116.1875 C69.32117188 116.19974609 70.26734375 116.21199219 71.2421875 116.22460938 C76.06045695 116.23476022 79.54870884 115.97557304 84 114 C86.13037109 114.44213867 86.13037109 114.44213867 88 115 C81.90237981 117.66421249 77.11470109 118.39757601 70.5 118.1875 C69.67757812 118.17396484 68.85515625 118.16042969 68.0078125 118.14648438 C66.00491779 118.11155016 64.00236644 118.05776057 62 118 C62 118.66 62 119.32 62 120 C61.01 120.33 60.02 120.66 59 121 C68.8331914 122.51355301 78.32998467 123.29406424 88.29393005 123.2784729 C89.6639385 123.2834921 91.03394402 123.28937256 92.40394551 123.29602563 C96.12118868 123.31164348 99.83835593 123.3152461 103.55562794 123.31667423 C107.58200817 123.32040057 111.60834826 123.33557171 115.63470459 123.34928894 C122.59493518 123.37146494 129.5551513 123.38653602 136.51540947 123.39665604 C146.57852681 123.41129798 156.64159371 123.43684995 166.70468128 123.46498732 C183.03495966 123.51035557 199.36524534 123.54701138 215.69555664 123.578125 C231.55038737 123.6083515 247.40520029 123.6427205 263.26000977 123.68261719 C264.7281808 123.68630951 264.7281808 123.68630951 266.22601186 123.69007643 C271.13671196 123.70245182 276.04741185 123.7149082 280.95811164 123.72740483 C321.63871998 123.83082326 362.31934078 123.91845903 403 124 C403 83.41 403 42.82 403 1 C270.01 1 137.02 1 0 1 C0 0.67 0 0.34 0 0 Z " fill="#266586" transform="translate(54,136)"/>
<path d="M0 0 C132.99 0 265.98 0 403 0 C403 40.59 403 81.18 403 123 C361.3426692 123.04412529 319.68536051 123.08104041 278.02801302 123.10213066 C273.10534523 123.10463195 268.18267748 123.1072206 263.26000977 123.10986328 C262.28003216 123.1103879 261.30005456 123.11091252 260.29038066 123.11145304 C244.44135028 123.1201458 228.59233446 123.13590954 212.74331271 123.15430559 C196.46993261 123.17303608 180.19656011 123.18412338 163.92316967 123.18817699 C153.88887748 123.19091552 143.85462647 123.19955201 133.82034696 123.21583293 C126.93111322 123.22643871 120.04190065 123.22959252 113.15265935 123.22700275 C109.18327557 123.22572704 105.21396355 123.2276251 101.24459267 123.23841095 C97.60028722 123.24824044 93.9561009 123.24857301 90.31178964 123.24179779 C88.39024387 123.24057055 86.46869922 123.24910897 84.54717439 123.25816262 C75.86948392 123.22877634 67.5628001 122.32212359 59 121 C59 120.01 59 119.02 59 118 C59.99 118.33 60.98 118.66 62 119 C62 118.34 62 117.68 62 117 C63.2065625 116.95101562 64.413125 116.90203125 65.65625 116.8515625 C67.27085306 116.77646468 68.88543539 116.70091997 70.5 116.625 C71.29148437 116.5940625 72.08296875 116.563125 72.8984375 116.53125 C78.18128612 116.27143777 82.90743869 115.43666294 88 114 C88 113.34 88 112.68 88 112 C89.28650706 111.30289269 90.57940665 110.61757124 91.875 109.9375 C92.59429687 109.55464844 93.31359375 109.17179687 94.0546875 108.77734375 C94.69664062 108.52082031 95.33859375 108.26429688 96 108 C98 109 98 109 99 111 C98.34 111 97.68 111 97 111 C96.9175 111.61875 96.835 112.2375 96.75 112.875 C96 115 96 115 94.0625 116.125 C93.381875 116.41375 92.70125 116.7025 92 117 C91.34 117.66 90.68 118.32 90 119 C87.66487041 118.67949202 85.33177975 118.34403308 83 118 C79.22623449 118.21615256 79.22623449 118.21615256 76 119 C75.67 119.66 75.34 120.32 75 121 C182.91 121.33 290.82 121.66 402 122 C401.505 63.095 401.505 63.095 401 3 C396.83632191 2.16726438 393.53391617 1.87473893 389.33918762 1.87415886 C388.67982739 1.87270542 388.02046716 1.87125198 387.34112632 1.86975449 C385.12819187 1.86610048 382.91532655 1.86957815 380.70239258 1.87301636 C379.10121786 1.87186431 377.50004341 1.87027621 375.89886951 1.86828911 C371.49600154 1.86410737 367.09315518 1.8661813 362.69028711 1.86927533 C357.94313058 1.87153389 353.19597781 1.86804754 348.44882202 1.86529541 C339.147965 1.86084363 329.84711603 1.86181156 320.54625869 1.86470805 C312.98873437 1.8669644 305.43121231 1.8672736 297.87368774 1.86618423 C296.2616091 1.86595439 296.2616091 1.86595439 294.61696321 1.86571989 C292.43384353 1.86540017 290.25072386 1.86507596 288.06760418 1.8647473 C267.58582812 1.86189424 247.10405653 1.86517681 226.62228119 1.87054767 C209.03952637 1.87501555 191.45677814 1.87423957 173.87402344 1.86962891 C153.46664032 1.86428008 133.05926112 1.86216892 112.6518774 1.86524117 C110.47668902 1.86555973 108.30150064 1.8658741 106.12631226 1.86618423 C104.52086783 1.86641565 104.52086783 1.86641565 102.88299018 1.86665174 C95.33260651 1.86751596 87.78222533 1.86605604 80.23184204 1.86370468 C71.03324549 1.86090307 61.83465748 1.86165261 52.63606191 1.86698543 C47.94083515 1.86961753 43.24562263 1.87063576 38.55039597 1.86733627 C34.25487548 1.86436328 29.95938248 1.86598297 25.66386449 1.87131383 C24.10740797 1.8724337 22.55094913 1.87185628 20.99449408 1.86943804 C18.88323357 1.86640865 16.7720679 1.86950498 14.66081238 1.87415886 C12.89974797 1.87440239 12.89974797 1.87440239 11.1031065 1.87465084 C8.28104927 1.98864709 5.74301559 2.35214557 3 3 C1.89210465 7.05308333 1.66268733 11.07111374 1.4375 15.25 C1.39431641 15.99507812 1.35113281 16.74015625 1.30664062 17.5078125 C1.20103275 19.338349 1.10005799 21.16915176 1 23 C1.66 23.33 2.32 23.66 3 24 C2.67 28.95 2.34 33.9 2 39 C1.67 39 1.34 39 1 39 C-0.61298153 26.0961478 0 13.0042728 0 0 Z " fill="#3CA8D6" transform="translate(54,137)"/>
<path d="M0 0 C36.58536585 0 36.58536585 0 46 9 C50.10424032 14.60108091 49.98765105 20.30502117 49 27 C47.51973986 30.29121668 45.61935689 32.54362532 43 35 C42.48179688 35.50273437 41.96359375 36.00546875 41.4296875 36.5234375 C36.59300448 40.56568949 31.11824594 41.2587297 25 42 C27.09241601 45.74502482 29.44682631 48.74695097 32.375 51.875 C35.02186253 54.75742473 37.53337477 57.58639258 39.75 60.8125 C41.90548928 64.05769756 41.90548928 64.05769756 44.6875 66.6875 C46.76792802 68.76792802 47.90357569 70.30877669 49 73 C45.9140625 73.47265625 45.9140625 73.47265625 42 73 C39.32694017 70.83888361 37.40544637 68.19414669 35.375 65.4375 C34.8284375 64.73302734 34.281875 64.02855469 33.71875 63.30273438 C31.152832 59.97256567 28.69134367 56.57651233 26.26953125 53.140625 C24.08563417 49.94322938 24.08563417 49.94322938 21.3125 47.3125 C19 45 19 45 17.9375 42.8125 C16.72658139 40.47139069 15.39822186 39.95928874 13 39 C13 38.01 13 37.02 13 36 C14.2065625 35.97421875 15.413125 35.9484375 16.65625 35.921875 C18.27086738 35.86555114 19.88544933 35.8082048 21.5 35.75 C22.68722656 35.72873047 22.68722656 35.72873047 23.8984375 35.70703125 C29.65722468 35.47101538 34.18089002 34.24297754 39 31 C41.95455569 27.74998874 43.23359298 25.26848514 43.4375 20.9375 C42.9826888 16.84419916 42.61462012 15.12067563 40 12 C30.63296347 4.33699746 30.63296347 4.33699746 5 6 C5 28.11 5 50.22 5 73 C3.35 73 1.7 73 0 73 C0 48.91 0 24.82 0 0 Z " fill="#EAEAEA" transform="translate(55,279)"/>
<path d="M0 0 C15.51 0 31.02 0 47 0 C47 1.98 47 3.96 47 6 C33.47 6 19.94 6 6 6 C6 15.24 6 24.48 6 34 C16.56 34 27.12 34 38 34 C38 35.65 38 37.3 38 39 C27.11 39 16.22 39 5 39 C5 48.57 5 58.14 5 68 C18.86 68 32.72 68 47 68 C47 69.65 47 71.3 47 73 C31.49 73 15.98 73 0 73 C0 48.91 0 24.82 0 0 Z " fill="#EBEBEB" transform="translate(124,279)"/>
<path d="M0 0 C35.2 0 35.2 0 44 7 C46.91554748 9.93134991 49.62439855 12.7431836 50 17 C50.12375 18.216875 50.2475 19.43375 50.375 20.6875 C50.32715511 25.77819682 48.08626329 30.02697937 45 34 C44.01 34.33 43.02 34.66 42 35 C42 35.66 42 36.32 42 37 C36.72745919 40.76610058 31.94689499 41.1277104 25.60546875 41.09765625 C24.52160889 41.09515869 23.43774902 41.09266113 22.32104492 41.09008789 C20.9569751 41.08098389 19.59290527 41.07187988 18.1875 41.0625 C11.6596875 41.0315625 11.6596875 41.0315625 5 41 C5 51.56 5 62.12 5 73 C3.35 73 1.7 73 0 73 C0 48.91 0 24.82 0 0 Z M5 5 C5 15.23 5 25.46 5 36 C11.1875 36.12375 11.1875 36.12375 17.5 36.25 C18.78455078 36.28641602 20.06910156 36.32283203 21.39257812 36.36035156 C29.1495034 36.43516945 34.69867118 35.80237468 40.70898438 30.48925781 C42.21834162 29.07662113 42.21834162 29.07662113 42 27 C42.66 27 43.32 27 44 27 C44.88562349 18.84507788 44.88562349 18.84507788 42.0625 11.5 C34.18793257 5.07178169 26.86761099 4.45437923 16.9375 4.75 C11.0284375 4.87375 11.0284375 4.87375 5 5 Z " fill="#EFEFEF" transform="translate(190,279)"/>
<path d="M0 0 C2.75 -0.27734375 2.75 -0.27734375 6 0 C8.125 1.87109375 8.125 1.87109375 10 4.4375 C10.67289062 5.34886719 11.34578125 6.26023437 12.0390625 7.19921875 C12.68617188 8.12347656 13.33328125 9.04773438 14 10 C14.58523438 10.81082031 15.17046875 11.62164062 15.7734375 12.45703125 C18.64793042 16.57246379 20.44224937 20.20692115 22 25 C22.99 25.33 23.98 25.66 25 26 C25 26.66 25 27.32 25 28 C25.66 28 26.32 28 27 28 C27.4125 28.86625 27.825 29.7325 28.25 30.625 C29.97832149 33.95819144 31.87076408 36.91627901 34 40 C37.87291872 38.70902709 38.40234904 37.19088359 40.5 33.75 C41.0878125 32.79609375 41.675625 31.8421875 42.28125 30.859375 C43.41617351 28.97127497 44.52122733 27.06485685 45.59375 25.140625 C46.0578125 24.43421875 46.521875 23.7278125 47 23 C47.66 23 48.32 23 49 23 C49.37511719 21.94619141 49.37511719 21.94619141 49.7578125 20.87109375 C51.15271325 17.6470307 52.89610907 14.96362878 54.875 12.0625 C55.55304688 11.06347656 56.23109375 10.06445312 56.9296875 9.03515625 C57.95449219 7.53275391 57.95449219 7.53275391 59 6 C59.66773438 4.89269531 60.33546875 3.78539062 61.0234375 2.64453125 C61.67570312 1.77183594 62.32796875 0.89914062 63 0 C66.75 -0.375 66.75 -0.375 70 0 C69.67 0.99 69.34 1.98 69 3 C68.34 3 67.68 3 67 3 C66.77441406 3.66644531 66.54882812 4.33289063 66.31640625 5.01953125 C64.60665744 8.8905649 62.32509015 12.20573841 59.9375 15.6875 C56.75797383 20.21745838 56.75797383 20.21745838 54 25 C53.34 25 52.68 25 52 25 C51.75121094 25.69996094 51.50242187 26.39992188 51.24609375 27.12109375 C49.83289104 30.38607931 48.06015109 33.11996366 46.0625 36.0625 C45.37285156 37.08472656 44.68320312 38.10695313 43.97265625 39.16015625 C42 42 42 42 40.40869141 43.78393555 C38.54412294 46.71715703 38.56988832 48.83673536 38.48828125 52.296875 C38.45283203 53.50214844 38.41738281 54.70742188 38.38085938 55.94921875 C38.35830078 57.20347656 38.33574219 58.45773437 38.3125 59.75 C38.27833984 61.01972656 38.24417969 62.28945313 38.20898438 63.59765625 C38.12650999 66.73168274 38.05735516 69.86542955 38 73 C36.02 73 34.04 73 32 73 C31.97494385 72.26885986 31.9498877 71.53771973 31.92407227 70.78442383 C31.80777359 67.46028583 31.68520072 64.13640759 31.5625 60.8125 C31.52318359 59.66201172 31.48386719 58.51152344 31.44335938 57.32617188 C31.40146484 56.21435547 31.35957031 55.10253906 31.31640625 53.95703125 C31.27974854 52.93585205 31.24309082 51.91467285 31.20532227 50.86254883 C31.01159937 48.16171537 30.59548047 45.63833872 30 43 C29.34 43 28.68 43 28 43 C27.72027344 42.45472656 27.44054687 41.90945313 27.15234375 41.34765625 C23.57813367 34.62446365 19.40266824 28.40266824 14 23 C13.71253906 22.26007813 13.42507813 21.52015625 13.12890625 20.7578125 C11.78015883 17.46294857 9.95903589 14.80274163 7.9375 11.875 C4.10618436 6.31855309 4.10618436 6.31855309 3 3 C2.34 3 1.68 3 1 3 C0.67 2.01 0.34 1.02 0 0 Z " fill="#E3E3E3" transform="translate(391,279)"/>
<path d="M0 0 C1.65 0 3.3 0 5 0 C5 22.44 5 44.88 5 68 C18.53 68 32.06 68 46 68 C46 69.65 46 71.3 46 73 C30.82 73 15.64 73 0 73 C0 48.91 0 24.82 0 0 Z " fill="#F9F9F9" transform="translate(257,279)"/>
<path d="M0 0 C0.33 0 0.66 0 1 0 C1.04898438 1.0621875 1.09796875 2.124375 1.1484375 3.21875 C2.01329134 20.37574478 6.45878008 34.29799521 19 47 C21.37267103 48.77765539 23.75023566 50.35486667 26.3125 51.84375 C26.869375 52.2253125 27.42625 52.606875 28 53 C28 53.66 28 54.32 28 55 C28.99 55.1546875 28.99 55.1546875 30 55.3125 C33.18528115 56.04246026 36.0932728 57.09854973 39.1328125 58.28125 C44.32513581 60.2799686 48.86828903 60.18377925 54.375 60.1875 C55.32117188 60.19974609 56.26734375 60.21199219 57.2421875 60.22460938 C62.06045695 60.23476022 65.54870884 59.97557304 70 58 C72.13037109 58.44213867 72.13037109 58.44213867 74 59 C67.90237981 61.66421249 63.11470109 62.39757601 56.5 62.1875 C55.67757812 62.17396484 54.85515625 62.16042969 54.0078125 62.14648438 C52.00491779 62.11155016 50.00236644 62.05776057 48 62 C48 62.66 48 63.32 48 64 C47.01 64.33 46.02 64.66 45 65 C49.95 65.66 54.9 66.32 60 67 C60 67.33 60 67.66 60 68 C35.58 68 11.16 68 -14 68 C-14 48.2 -14 28.4 -14 8 C-13.67 8 -13.34 8 -13 8 C-12.83236258 13.21424594 -12.67180531 18.42864348 -12.51782227 23.64331055 C-12.46443392 25.41745885 -12.40910702 27.19154991 -12.35180664 28.96557617 C-12.26980731 31.51468565 -12.19476856 34.06391928 -12.12109375 36.61328125 C-12.09405869 37.40712723 -12.06702362 38.20097321 -12.03916931 39.01887512 C-11.94995568 42.30636716 -11.95116594 44.85349781 -13 48 C-12.34 48.33 -11.68 48.66 -11 49 C-11 53.95 -11 58.9 -11 64 C-8.69 64.33 -6.38 64.66 -4 65 C-4 65.66 -4 66.32 -4 67 C-2.91589844 66.835 -1.83179687 66.67 -0.71484375 66.5 C5.64929513 65.70465767 12.0235934 65.95534458 18.42382812 66.0390625 C24.37930271 66.08642214 30.09397504 65.78176959 36 65 C35.01 63.515 35.01 63.515 34 62 C35.98 61.505 35.98 61.505 38 61 C37.13375 60.731875 36.2675 60.46375 35.375 60.1875 C32 59 32 59 29 57.4375 C25.93936408 55.97094529 23.35300125 55.39916682 20 55 C20 53.02 20 51.04 20 49 C16.535 48.505 16.535 48.505 13 48 C12.49596232 46.70990357 11.99690074 45.41786211 11.5 44.125 C11.2215625 43.40570313 10.943125 42.68640625 10.65625 41.9453125 C10 40 10 40 10 38 C9.01 38 8.02 38 7 38 C5.6031898 35.57886233 4.97053748 33.79797132 4.5625 31 C3.95329262 27.75089397 3.03561572 26.52416349 1 24 C-2.56242317 16.49071951 -1.20671835 7.99450907 0 0 Z " fill="#5573AE" transform="translate(68,192)"/>
<path d="M0 0 C2.58361518 -0.05407567 5.16609255 -0.093707 7.75 -0.125 C8.84441406 -0.15013672 8.84441406 -0.15013672 9.9609375 -0.17578125 C14.13521398 -0.21372922 16.16970546 0.08485273 20 2 C20 35.99 20 69.98 20 105 C18.515 105.495 18.515 105.495 17 106 C17 106.66 17 107.32 17 108 C14.22813012 108.10787818 11.46044463 108.18723327 8.6875 108.25 C7.90181641 108.28351563 7.11613281 108.31703125 6.30664062 108.3515625 C5.1706543 108.37089844 5.1706543 108.37089844 4.01171875 108.390625 C2.96697388 108.4220459 2.96697388 108.4220459 1.90112305 108.45410156 C0 108 0 108 -1.59753418 106.57946777 C-3.76781359 102.58780842 -3.39244155 98.74667687 -3.34057617 94.27441406 C-3.34101425 93.28871933 -3.34145233 92.3030246 -3.34190369 91.28746033 C-3.33981397 88.02998028 -3.3164738 84.77301513 -3.29296875 81.515625 C-3.28737346 79.25689983 -3.28310305 76.99817103 -3.28010559 74.73944092 C-3.2686516 68.79471788 -3.23917941 62.85021476 -3.20599365 56.90557861 C-3.17530486 50.83942642 -3.16160278 44.7732387 -3.14648438 38.70703125 C-3.11431045 26.80459088 -3.0631072 14.90231373 -3 3 C-2.67 3 -2.34 3 -2 3 C-1.9845388 4.86921867 -1.9845388 4.86921867 -1.96876526 6.77619934 C-1.87112638 18.5040825 -1.76840135 30.23191147 -1.66066074 41.95970631 C-1.60543106 47.9894762 -1.55201091 54.01925095 -1.50268555 60.04907227 C-1.45504278 65.8651477 -1.40269988 71.68116336 -1.34705925 77.49716759 C-1.32663532 79.71916916 -1.30792231 81.94118711 -1.29092598 84.16321754 C-1.26688293 87.26878423 -1.23682804 90.37423766 -1.20532227 93.47973633 C-1.1995668 94.40402435 -1.19381134 95.32831238 -1.18788147 96.28060913 C-1.17809265 97.12614853 -1.16830383 97.97168793 -1.15821838 98.84284973 C-1.15176583 99.57751874 -1.14531328 100.31218775 -1.1386652 101.06911945 C-1.06427609 103.21960717 -1.06427609 103.21960717 0 106 C2.64624284 105.85978195 5.29184578 105.71310224 7.9375 105.5625 C8.69224609 105.52318359 9.44699219 105.48386719 10.22460938 105.44335938 C13.91944187 105.55961976 13.91944187 105.55961976 17 104 C17.10600402 100.90565762 17.14677455 97.83351169 17.14526367 94.73852539 C17.14862228 93.76623489 17.1519809 92.7939444 17.15544128 91.79219055 C17.16498262 88.56066632 17.16689597 85.32919371 17.16796875 82.09765625 C17.17117907 79.86185179 17.17454296 77.62604754 17.17805481 75.39024353 C17.18405402 70.69676221 17.18589389 66.00329934 17.18530273 61.30981445 C17.18520105 55.28235892 17.19885576 49.25502104 17.21607494 43.22759342 C17.22716883 38.60806226 17.22922275 33.98855977 17.22869301 29.36901665 C17.22987698 27.14616935 17.23432192 24.9233214 17.24202538 22.70048714 C17.25177292 19.59719623 17.24896804 16.4941638 17.24291992 13.39086914 C17.25134918 12.00140076 17.25134918 12.00140076 17.25994873 10.5838623 C17.25575424 9.74114273 17.25155975 8.89842316 17.24723816 8.03016663 C17.24805531 6.92872865 17.24805531 6.92872865 17.24888897 5.80503941 C17.15034796 3.74775248 17.15034796 3.74775248 15 2 C12.43083343 1.69400937 9.95241616 1.48912913 7.375 1.375 C6.66859375 1.33632812 5.9621875 1.29765625 5.234375 1.2578125 C3.49001476 1.16352276 1.74504309 1.08067109 0 1 C0 0.67 0 0.34 0 0 Z " fill="#3690B6" transform="translate(413,145)"/>
<path d="M0 0 C0.625 1.875 0.625 1.875 1 4 C0.34 4.66 -0.32 5.32 -1 6 C-1.39764263 7.98821313 -1.73775349 9.98944339 -2 12 C-1.34 12.33 -0.68 12.66 0 13 C-0.23396484 13.83144531 -0.23396484 13.83144531 -0.47265625 14.6796875 C-0.66730469 15.40414062 -0.86195312 16.12859375 -1.0625 16.875 C-1.25972656 17.59429687 -1.45695312 18.31359375 -1.66015625 19.0546875 C-2.21132607 21.07273593 -2.21132607 21.07273593 -1 23 C-1 23.99 -1 24.98 -1 26 C-0.34 26.33 0.32 26.66 1 27 C0.773125 28.03125 0.54625 29.0625 0.3125 30.125 C-0.03901465 34.4837817 0.76055351 36.32730775 3 40 C4.98 40 6.96 40 9 40 C8.67 40.99 8.34 41.98 8 43 C8.33 43.33 8.66 43.66 9 44 C9.33 44.99 9.66 45.98 10 47 C12.71549154 49.30671915 12.71549154 49.30671915 15.1875 48.625 C15.785625 48.41875 16.38375 48.2125 17 48 C17.33 49.65 17.66 51.3 18 53 C20.56278699 53.05420701 23.12441483 53.09377007 25.6875 53.125 C26.40873047 53.14175781 27.12996094 53.15851563 27.87304688 53.17578125 C32.09066447 53.21429831 35.18435299 52.76957542 39 51 C41.8125 50.875 41.8125 50.875 44 51 C40.7802695 54.93522617 36.65751612 55.82928576 31.73828125 56.3359375 C21.66249271 56.45082676 12.22272598 55.15609954 4.62890625 47.96484375 C-3.91467317 37.65927912 -7.03286743 27.20818347 -6 14 C-4.93840636 8.56115039 -3.50656105 4.33163423 0 0 Z " fill="#507AAE" transform="translate(95,178)"/>
<path d="M0 0 C1.65 0 3.3 0 5 0 C5.06942445 13.11691838 5.12277285 26.23379325 5.15543652 39.35085773 C5.1711112 45.44124643 5.19238249 51.53150968 5.22631836 57.62182617 C5.25884731 63.49622523 5.27683942 69.37050343 5.28463173 75.24498558 C5.29018686 77.48935029 5.30103426 79.73370818 5.31719017 81.97802162 C5.3388783 85.11480782 5.34197051 88.25109069 5.34057617 91.38793945 C5.351362 92.32157822 5.36214783 93.25521698 5.3732605 94.21714783 C5.36707451 95.49807816 5.36707451 95.49807816 5.36076355 96.80488586 C5.36352893 97.54692922 5.36629431 98.28897257 5.36914349 99.05350208 C4.88722251 101.59467703 4.06488236 102.4750299 2 104 C-0.64996326 104.2172101 -3.05076558 104.28351554 -5.6875 104.1875 C-6.38939453 104.17396484 -7.09128906 104.16042969 -7.81445312 104.14648438 C-9.54329829 104.11120182 -11.27174765 104.05739583 -13 104 C-13.33 103.34 -13.66 102.68 -14 102 C-9 101 -9 101 3 101 C3 68.33 3 35.66 3 2 C2.01 2 1.02 2 0 2 C-0.1546875 3.1446875 -0.1546875 3.1446875 -0.3125 4.3125 C-1.05067115 7.19807812 -1.62140803 8.26179817 -4 10 C-4.99 10 -5.98 10 -7 10 C-6.1875 8.0625 -6.1875 8.0625 -5 6 C-4.01 5.67 -3.02 5.34 -2 5 C-0.78130071 2.49552484 -0.78130071 2.49552484 0 0 Z " fill="#032038" transform="translate(287,147)"/>
<path d="M0 0 C0.53512207 0.13929932 1.07024414 0.27859863 1.62158203 0.42211914 C8.26023901 2.03841924 14.61404643 2.36888035 21.421875 2.47851562 C22.22882813 2.50494141 23.03578125 2.53136719 23.8671875 2.55859375 C24.59019043 2.57204834 25.31319336 2.58550293 26.05810547 2.59936523 C28.50169405 3.10350515 29.41724255 4.12315961 31 6 C29.68 6 28.36 6 27 6 C27 5.34 27 4.68 27 4 C1.84041205 3.81923988 1.84041205 3.81923988 -19.62109375 15.65234375 C-21 17 -21 17 -23 17 C-23 17.66 -23 18.32 -23 19 C-24.66666667 20.66666667 -26.33333333 22.33333333 -28 24 C-28.89458977 25.25712032 -29.76973474 26.52830231 -30.625 27.8125 C-31.40875 28.864375 -32.1925 29.91625 -33 31 C-33.99 31 -34.98 31 -36 31 C-36.33 32.32 -36.66 33.64 -37 35 C-38.39292193 32.21415615 -38.00960931 30.09424431 -37.8125 27 C-37.75707031 25.9275 -37.70164062 24.855 -37.64453125 23.75 C-37 21 -37 21 -35.08203125 19.64453125 C-33 19 -33 19 -30.875 18.6875 C-28.72150127 18.14365668 -28.72150127 18.14365668 -27.8125 15.5625 C-27.544375 14.716875 -27.27625 13.87125 -27 13 C-26.67 12.34 -26.34 11.68 -26 11 C-25.319375 11.2475 -24.63875 11.495 -23.9375 11.75 C-20.29015149 12.06041264 -18.59111419 11.10386641 -15.453125 9.3984375 C-13.45358167 7.74030214 -13.45358167 7.74030214 -13 3 C-8.38 3 -3.76 3 1 3 C0.505 1.515 0.505 1.515 0 0 Z " fill="#2D9FD5" transform="translate(109,141)"/>
<path d="M0 0 C6.07756517 1.21551303 6.9850732 2.61159164 11 7 C10.67 7.66 10.34 8.32 10 9 C8.68 9 7.36 9 6 9 C5.87625 8.195625 5.7525 7.39125 5.625 6.5625 C5.41875 5.716875 5.2125 4.87125 5 4 C4.34 3.67 3.68 3.34 3 3 C2.67 35.67 2.34 68.34 2 102 C1.34 101.67 0.68 101.34 0 101 C0 67.67 0 34.34 0 0 Z " fill="#000C1E" transform="translate(186,147)"/>
<path d="M0 0 C2 1 2 1 3 3 C2.34 3 1.68 3 1 3 C0.9175 3.61875 0.835 4.2375 0.75 4.875 C0 7 0 7 -1.9375 8.125 C-2.618125 8.41375 -3.29875 8.7025 -4 9 C-4.66 9.66 -5.32 10.32 -6 11 C-8.33512959 10.67949202 -10.66822025 10.34403308 -13 10 C-16.77376551 10.21615256 -16.77376551 10.21615256 -20 11 C-20.33 11.66 -20.66 12.32 -21 13 C-13.41 13.33 -5.82 13.66 2 14 C2 14.33 2 14.66 2 15 C-11.16208764 15.21258186 -24.00827595 15.33184791 -37 13 C-37 12.01 -37 11.02 -37 10 C-36.01 10.33 -35.02 10.66 -34 11 C-34 10.34 -34 9.68 -34 9 C-32.7934375 8.95101562 -31.586875 8.90203125 -30.34375 8.8515625 C-28.72914694 8.77646468 -27.11456461 8.70091997 -25.5 8.625 C-24.70851563 8.5940625 -23.91703125 8.563125 -23.1015625 8.53125 C-17.81871388 8.27143777 -13.09256131 7.43666294 -8 6 C-8 5.34 -8 4.68 -8 4 C-6.71349294 3.30289269 -5.42059335 2.61757124 -4.125 1.9375 C-3.40570313 1.55464844 -2.68640625 1.17179688 -1.9453125 0.77734375 C-0.98238281 0.39255859 -0.98238281 0.39255859 0 0 Z " fill="#498EC8" transform="translate(150,245)"/>
<path d="M0 0 C0.66 0 1.32 0 2 0 C2.66666667 2.66666667 3.33333333 5.33333333 4 8 C4.18691406 8.63292969 4.37382812 9.26585937 4.56640625 9.91796875 C5.1067515 12.51259957 5.05763426 14.91492618 5 17.5625 C4.92947393 20.81110719 4.96402522 22.89207566 6 26 C5.34 26.99 4.68 27.98 4 29 C8.27838518 27.48186332 11.96690756 25.29419033 15.81640625 22.92578125 C18.37100779 21.84270332 19.44653975 22.04462371 22 23 C20.08424874 24.12655813 18.16736281 25.25118687 16.25 26.375 C15.18265625 27.00148438 14.1153125 27.62796875 13.015625 28.2734375 C6.42123677 32.04898102 6.42123677 32.04898102 3.3125 31.6875 C1 31 1 31 0 30 C-0.08783542 27.78144736 -0.10694609 25.56011504 -0.09765625 23.33984375 C-0.0962413 22.67537735 -0.09482635 22.01091095 -0.09336853 21.3263092 C-0.08775518 19.19666101 -0.07520054 17.06711661 -0.0625 14.9375 C-0.05748671 13.49674631 -0.05292351 12.05599097 -0.04882812 10.61523438 C-0.03778145 7.07678898 -0.02050792 3.53840461 0 0 Z " fill="#842A72" transform="translate(330,320)"/>
<path d="M0 0 C0.33 0 0.66 0 1 0 C1.16763742 5.21424594 1.32819469 10.42864348 1.48217773 15.64331055 C1.53556608 17.41745885 1.59089298 19.19154991 1.64819336 20.96557617 C1.73019269 23.51468565 1.80523144 26.06391928 1.87890625 28.61328125 C1.90594131 29.40712723 1.93297638 30.20097321 1.96083069 31.01887512 C2.05004432 34.30636716 2.04883406 36.85349781 1 40 C1.66 40.33 2.32 40.66 3 41 C3 45.95 3 50.9 3 56 C5.31 56.33 7.62 56.66 10 57 C10 57.66 10 58.32 10 59 C11.485 58.7525 11.485 58.7525 13 58.5 C22.47292303 57.31588462 32.58930543 57.43155091 42 59 C42 59.33 42 59.66 42 60 C28.14 60 14.28 60 0 60 C0 40.2 0 20.4 0 0 Z " fill="#5A4F8D" transform="translate(54,200)"/>
<path d="M0 0 C1.65 0 3.3 0 5 0 C5.22320807 13.4905447 5.42472384 26.98122118 5.59840012 40.47249985 C5.67972638 46.73676858 5.76857714 53.00074369 5.87451172 59.26464844 C5.97643243 65.30747221 6.05873451 71.35027153 6.12732697 77.39356232 C6.15699063 79.70137889 6.19377329 82.0091151 6.2377243 84.3167038 C6.29799124 87.5442217 6.33314246 90.7710958 6.36230469 93.99902344 C6.38603653 94.95711914 6.40976837 95.91521484 6.43421936 96.90234375 C6.45550344 103.33079818 6.45550344 103.33079818 4.22052002 106.61431885 C0.81985793 108.73644939 -2.43018811 108.17517341 -6.25 107.75 C-6.99507813 107.68425781 -7.74015625 107.61851562 -8.5078125 107.55078125 C-10.34035965 107.38632189 -12.17052655 107.19571111 -14 107 C-14 106.34 -14 105.68 -14 105 C-12.94039063 104.95101562 -11.88078125 104.90203125 -10.7890625 104.8515625 C-9.40101503 104.77653291 -8.01299549 104.70098515 -6.625 104.625 C-5.92632812 104.5940625 -5.22765625 104.563125 -4.5078125 104.53125 C-0.29814173 104.40500502 -0.29814173 104.40500502 3 102 C3.31273883 100.11212498 3.31273883 100.11212498 3.2784729 97.92514038 C3.28963638 97.07256149 3.30079987 96.2199826 3.31230164 95.34156799 C3.31446182 94.40433395 3.31662201 93.46709991 3.31884766 92.50146484 C3.32889328 91.51606216 3.3389389 90.53065948 3.34928894 89.51539612 C3.38026355 86.24724937 3.39719569 82.97918505 3.4140625 79.7109375 C3.43276266 77.4493437 3.45233519 75.18775697 3.4727478 72.92617798 C3.52419665 66.96513013 3.56375401 61.00405962 3.60089111 55.04290771 C3.64085098 48.96344338 3.69197979 42.88407431 3.7421875 36.8046875 C3.83909772 24.86985846 3.92345403 12.93497579 4 1 C2.68 0.67 1.36 0.34 0 0 Z " fill="#369AC3" transform="translate(288,146)"/>
<path d="M0 0 C0.33 0 0.66 0 1 0 C1.04898438 1.0621875 1.09796875 2.124375 1.1484375 3.21875 C2.01422725 20.39431136 6.4739593 34.2674861 19 47 C21.87912833 49.23782716 24.83251802 51.19629498 28 53 C24.77208445 55.1519437 23.71599191 55.20086443 20 55 C20 53.02 20 51.04 20 49 C16.535 48.505 16.535 48.505 13 48 C12.49596232 46.70990357 11.99690074 45.41786211 11.5 44.125 C11.2215625 43.40570313 10.943125 42.68640625 10.65625 41.9453125 C10 40 10 40 10 38 C9.01 38 8.02 38 7 38 C5.6031898 35.57886233 4.97053748 33.79797132 4.5625 31 C3.95329262 27.75089397 3.03561572 26.52416349 1 24 C-2.56242317 16.49071951 -1.20671835 7.99450907 0 0 Z " fill="#575D95" transform="translate(68,192)"/>
<path d="M0 0 C0.83050873 0.00444122 1.66101746 0.00888245 2.51669312 0.01345825 C3.92792953 0.01368484 3.92792953 0.01368484 5.36767578 0.01391602 C6.38542084 0.02423859 7.40316589 0.03456116 8.45175171 0.04519653 C9.49213593 0.04802643 10.53252014 0.05085632 11.60443115 0.05377197 C14.93646615 0.064992 18.26823507 0.09009989 21.60018921 0.11550903 C23.85539367 0.12553648 26.11060233 0.13466273 28.36581421 0.14285278 C33.90236375 0.16493725 39.43875748 0.19843265 44.97518921 0.24050903 C44.31518921 0.57050903 43.65518921 0.90050903 42.97518921 1.24050903 C42.97518921 1.90050903 42.97518921 2.56050903 42.97518921 3.24050903 C36.88795265 3.26517984 30.80074504 3.28335507 24.71347046 3.29544067 C22.6415252 3.30047755 20.56958351 3.30730728 18.49765015 3.31594849 C15.52400839 3.32804224 12.55041352 3.3337437 9.57675171 3.33816528 C8.64650177 3.34332657 7.71625183 3.34848785 6.7578125 3.35380554 C5.89707123 3.35388107 5.03632996 3.3539566 4.14950562 3.35403442 C3.01033188 3.35736534 3.01033188 3.35736534 1.84814453 3.36076355 C-0.02481079 3.24050903 -0.02481079 3.24050903 -2.02481079 2.24050903 C-2.35481079 15.11050903 -2.68481079 27.98050903 -3.02481079 41.24050903 C-3.35481079 41.24050903 -3.68481079 41.24050903 -4.02481079 41.24050903 C-4.07416289 35.72294427 -4.11050741 30.20550733 -4.13467407 24.68777466 C-4.14474614 22.80982221 -4.15840441 20.9318855 -4.1756897 19.0539856 C-4.19988532 16.35830813 -4.21128162 13.66283757 -4.22012329 10.96707153 C-4.23044586 10.12431671 -4.24076843 9.28156189 -4.25140381 8.41326904 C-4.25180223 6.35429656 -4.14738667 4.29582969 -4.02481079 2.24050903 C-2.02481079 0.24050903 -2.02481079 0.24050903 0 0 Z " fill="#2D88B0" transform="translate(339.0248107910156,207.75949096679688)"/>
<path d="M0 0 C1.38294718 0.01329757 2.76582404 0.03715018 4.1484375 0.0703125 C4.85484375 0.07933594 5.56125 0.08835938 6.2890625 0.09765625 C8.03399848 0.12123647 9.77876045 0.15710789 11.5234375 0.1953125 C11.8534375 0.8553125 12.1834375 1.5153125 12.5234375 2.1953125 C11.53601563 2.25589844 10.54859375 2.31648437 9.53125 2.37890625 C8.24992187 2.46269531 6.96859375 2.54648438 5.6484375 2.6328125 C4.37226563 2.71402344 3.09609375 2.79523438 1.78125 2.87890625 C-1.35956402 2.98737277 -1.35956402 2.98737277 -3.4765625 4.1953125 C-3.8065625 36.5353125 -4.1365625 68.8753125 -4.4765625 102.1953125 C-4.8065625 102.1953125 -5.1365625 102.1953125 -5.4765625 102.1953125 C-5.52282527 89.19148833 -5.5584008 76.18768361 -5.58018684 63.18379402 C-5.59064103 57.14610012 -5.60482997 51.10846236 -5.62744141 45.07080078 C-5.64911159 39.2482841 -5.6611188 33.42582155 -5.66631699 27.60326767 C-5.67002324 25.37762474 -5.67726021 23.15198489 -5.68802261 20.9263649 C-5.70246013 17.81819415 -5.7045437 14.71024945 -5.70361328 11.60205078 C-5.71080383 10.67416748 -5.71799438 9.74628418 -5.72540283 8.7902832 C-5.7226535 7.94611847 -5.71990417 7.10195374 -5.71707153 6.23220825 C-5.71891512 5.49661745 -5.72075871 4.76102665 -5.72265816 4.00314522 C-5.21557471 0.27808135 -3.46417837 0.19461676 0 0 Z " fill="#063B53" transform="translate(416.4765625,145.8046875)"/>
<path d="M0 0 C2.33944736 0.28730055 4.6739143 0.61936779 7 1 C7 1.66 7 2.32 7 3 C6.34 3 5.68 3 5 3 C5 3.66 5 4.32 5 5 C4.34 5 3.68 5 3 5 C2.67 15.56 2.34 26.12 2 37 C1.01 37 0.02 37 -1 37 C-1.0246501 31.89136104 -1.04283607 26.78275641 -1.05493164 21.67407227 C-1.05997204 19.93480832 -1.0668043 18.19554864 -1.07543945 16.45629883 C-1.08751792 13.96174063 -1.09323108 11.46723827 -1.09765625 8.97265625 C-1.10281754 8.19036148 -1.10797882 7.40806671 -1.11329651 6.60206604 C-1.11349226 4.73432886 -1.06199694 2.86670796 -1 1 C-0.67 0.67 -0.34 0.34 0 0 Z " fill="#BF1E2F" transform="translate(332,283)"/>
<path d="M0 0 C0.33 0 0.66 0 1 0 C1.04626277 13.00382417 1.0818383 26.00762889 1.10362434 39.01151848 C1.11407853 45.04921238 1.12826747 51.08685014 1.15087891 57.12451172 C1.17254909 62.9470284 1.1845563 68.76949095 1.18975449 74.59204483 C1.19346074 76.81768776 1.20069771 79.04332761 1.21146011 81.2689476 C1.22589763 84.37711835 1.2279812 87.48506305 1.22705078 90.59326172 C1.23424133 91.52114502 1.24143188 92.44902832 1.24884033 93.4050293 C1.246091 94.24919403 1.24334167 95.09335876 1.24050903 95.96310425 C1.24235262 96.69869505 1.24419621 97.43428585 1.24609566 98.19216728 C1 100 1 100 -1 102 C-3.74485593 102.14507695 -6.38480543 102.18652423 -9.125 102.125 C-9.87910156 102.11597656 -10.63320313 102.10695313 -11.41015625 102.09765625 C-13.27357254 102.0740687 -15.13682593 102.03819719 -17 102 C-17 101.67 -17 101.34 -17 101 C-12.05 101 -7.1 101 -2 101 C-2 99.68 -2 98.36 -2 97 C-1.34 97 -0.68 97 0 97 C0 64.99 0 32.98 0 0 Z " fill="#001323" transform="translate(430,149)"/>
<path d="M0 0 C0.53512207 0.13929932 1.07024414 0.27859863 1.62158203 0.42211914 C8.26023901 2.03841924 14.61404643 2.36888035 21.421875 2.47851562 C22.22882813 2.50494141 23.03578125 2.53136719 23.8671875 2.55859375 C24.59019043 2.57204834 25.31319336 2.58550293 26.05810547 2.59936523 C28.50169405 3.10350515 29.41724255 4.12315961 31 6 C29.68 6 28.36 6 27 6 C27 5.34 27 4.68 27 4 C8.51608922 3.88935795 8.51608922 3.88935795 -9 9 C-9.96679688 9.45375 -10.93359375 9.9075 -11.9296875 10.375 C-14.31476342 11.5378071 -16.66537086 12.73971347 -19 14 C-18.625 12.05859375 -18.625 12.05859375 -18 10 C-17.34 9.690625 -16.68 9.38125 -16 9.0625 C-15.34 8.711875 -14.68 8.36125 -14 8 C-13.67 6.35 -13.34 4.7 -13 3 C-8.38 3 -3.76 3 1 3 C0.67 2.01 0.34 1.02 0 0 Z " fill="#2F8BB2" transform="translate(109,141)"/>
<path d="M0 0 C0.598125 0.20625 1.19625 0.4125 1.8125 0.625 C0.8225 0.625 -0.1675 0.625 -1.1875 0.625 C-1.5175 1.615 -1.8475 2.605 -2.1875 3.625 C-2.8475 3.625 -3.5075 3.625 -4.1875 3.625 C-4.1875 36.955 -4.1875 70.285 -4.1875 104.625 C-4.5175 104.625 -4.8475 104.625 -5.1875 104.625 C-5.25689224 91.23004254 -5.31025637 77.83512757 -5.34293652 64.44002724 C-5.35861827 58.22069594 -5.37990234 52.00148727 -5.41381836 45.78222656 C-5.44632226 39.78463911 -5.46433408 33.78716989 -5.47213173 27.78950119 C-5.47769139 25.4968619 -5.48854743 23.20422936 -5.50469017 20.91164017 C-5.52634508 17.70999215 -5.52947192 14.5088379 -5.52807617 11.30712891 C-5.538862 10.35119339 -5.54964783 9.39525787 -5.5607605 8.41035461 C-5.55663651 7.54094742 -5.55251251 6.67154022 -5.54826355 5.77578735 C-5.55102893 5.01807352 -5.55379431 4.26035969 -5.55664349 3.47968483 C-5.43482614 2.86763884 -5.31300879 2.25559284 -5.1875 1.625 C-2.1875 -0.375 -2.1875 -0.375 0 0 Z " fill="#39ACDC" transform="translate(414.1875,144.375)"/>
<path d="M0 0 C9.37035938 -0.02312504 18.74070901 -0.04091591 28.11109066 -0.05181217 C32.46168459 -0.05704065 36.81225907 -0.06413765 41.1628418 -0.07543945 C45.35790258 -0.08626959 49.55294459 -0.0922771 53.74801826 -0.09487724 C55.35206968 -0.09673126 56.95612003 -0.10035144 58.5601635 -0.10573006 C60.79916515 -0.11294219 63.0380883 -0.11399087 65.27709961 -0.11352539 C66.55395126 -0.115746 67.83080292 -0.11796661 69.14634705 -0.12025452 C72 0 72 0 73 1 C73.07258946 3.18639453 73.08373783 5.37500389 73.0625 7.5625 C73.05347656 8.76003906 73.04445313 9.95757812 73.03515625 11.19140625 C73.02355469 12.11824219 73.01195312 13.04507813 73 14 C72.34 14.33 71.68 14.66 71 15 C70.94392578 13.84371094 70.94392578 13.84371094 70.88671875 12.6640625 C70.82097656 11.66117188 70.75523437 10.65828125 70.6875 9.625 C70.62949219 8.62726563 70.57148438 7.62953125 70.51171875 6.6015625 C70.25841797 5.31378906 70.25841797 5.31378906 70 4 C66.43628654 1.62419103 64.83390187 1.72953031 60.60083008 1.68115234 C59.63456947 1.66608391 59.63456947 1.66608391 58.64878845 1.65071106 C56.52237835 1.61985295 54.3960943 1.60283707 52.26953125 1.5859375 C50.79407159 1.56722791 49.31862265 1.54765466 47.84318542 1.5272522 C43.96182575 1.47590264 40.08043137 1.43629219 36.19891357 1.39910889 C32.23733923 1.35908684 28.2759096 1.30798632 24.31445312 1.2578125 C16.54306799 1.16101982 8.77161291 1.0766259 1 1 C0.34 2.32 -0.32 3.64 -1 5 C-0.67 3.35 -0.34 1.7 0 0 Z " fill="#00020A" transform="translate(319,147)"/>
<path d="M0 0 C0.33 0 0.66 0 1 0 C1.05064156 6.78097348 1.08570883 13.56189833 1.10986328 20.34301758 C1.11993107 22.6506533 1.13358623 24.95827625 1.15087891 27.26586914 C1.17509287 30.57962191 1.18647526 33.89320626 1.1953125 37.20703125 C1.20563507 38.2414888 1.21595764 39.27594635 1.22659302 40.3417511 C1.22674408 41.3025206 1.22689514 42.2632901 1.22705078 43.25317383 C1.231492 44.09922684 1.23593323 44.94527985 1.24050903 45.81697083 C1 48 1 48 -1 51 C-3.62697064 51.22137393 -6.00893964 51.28162025 -8.625 51.1875 C-9.33140625 51.17396484 -10.0378125 51.16042969 -10.765625 51.14648438 C-12.51074128 51.1111104 -14.25546608 51.05730221 -16 51 C-16.33 50.34 -16.66 49.68 -17 49 C-13 48 -13 48 -1 48 C-0.67 32.16 -0.34 16.32 0 0 Z " fill="#001326" transform="translate(205,200)"/>
<path d="M0 0 C0 3.59857954 -0.95830515 5.09451118 -3 8 C-3.66 8 -4.32 8 -5 8 C-5.66 9.65 -6.32 11.3 -7 13 C-7.66 13 -8.32 13 -9 13 C-9.103125 13.639375 -9.20625 14.27875 -9.3125 14.9375 C-9.539375 15.618125 -9.76625 16.29875 -10 17 C-10.99 17.33 -11.98 17.66 -13 18 C-13.69658363 19.65438613 -14.36096883 21.32254318 -15 23 C-15.97850195 24.02104551 -16.97980427 25.0206121 -18 26 C-19.03357147 27.64605826 -20.04060332 29.30963442 -21 31 C-21.99 30.67 -22.98 30.34 -24 30 C-22.625 27.5 -22.625 27.5 -21 25 C-20.34 25 -19.68 25 -19 25 C-18.34 23.35 -17.68 21.7 -17 20 C-16.34 20 -15.68 20 -15 20 C-14.62875 18.9171875 -14.62875 18.9171875 -14.25 17.8125 C-12.87730408 14.72393418 -11.27646704 12.48988582 -9 10 C-8.34 10 -7.68 10 -7 10 C-6.773125 9.46375 -6.54625 8.9275 -6.3125 8.375 C-4.56617944 5.21499137 -2.3597151 2.7323017 0 0 Z " fill="#041D2F" transform="translate(279,157)"/>
<path d="M0 0 C0.99 0.33 1.98 0.66 3 1 C3 1.66 3 2.32 3 3 C3.556875 3.20625 4.11375 3.4125 4.6875 3.625 C7.9777957 5.58139204 9.84332061 7.85741004 12 11 C11.8125 13.875 11.8125 13.875 11 16 C9.02 16.66 7.04 17.32 5 18 C5.99 15.69 6.98 13.38 8 11 C6.35 11.66 4.7 12.32 3 13 C3.33 10.36 3.66 7.72 4 5 C3.01 4.319375 3.01 4.319375 2 3.625 C1.34 3.08875 0.68 2.5525 0 2 C0 1.34 0 0.68 0 0 Z " fill="#051A26" transform="translate(157,157)"/>
<path d="M0 0 C1.07314453 0.00322266 2.14628906 0.00644531 3.25195312 0.00976562 C4.37150391 0.01814453 5.49105469 0.02652344 6.64453125 0.03515625 C8.34125977 0.04192383 8.34125977 0.04192383 10.07226562 0.04882812 C12.86724052 0.06062127 15.66210945 0.07707975 18.45703125 0.09765625 C18.45703125 0.75765625 18.45703125 1.41765625 18.45703125 2.09765625 C19.78734375 2.00484375 19.78734375 2.00484375 21.14453125 1.91015625 C24.80188142 2.11717607 26.50480276 3.01373025 29.45703125 5.09765625 C28.46703125 5.75765625 27.47703125 6.41765625 26.45703125 7.09765625 C26.08578125 6.60265625 25.71453125 6.10765625 25.33203125 5.59765625 C22.71008732 3.50010111 20.71860653 3.8802179 17.45703125 4.09765625 C17.12703125 3.10765625 16.79703125 2.11765625 16.45703125 1.09765625 C14.31082865 1.23795044 12.16506907 1.38503789 10.01953125 1.53515625 C8.82457031 1.61636719 7.62960938 1.69757813 6.3984375 1.78125 C3.57132881 1.77421739 3.57132881 1.77421739 2.45703125 3.09765625 C0.1038957 3.17037366 -2.25130543 3.18136493 -4.60546875 3.16015625 C-5.89582031 3.15113281 -7.18617187 3.14210937 -8.515625 3.1328125 C-9.51464844 3.12121094 -10.51367188 3.10960937 -11.54296875 3.09765625 C-7.47354112 0.3847045 -4.78128689 -0.02529781 0 0 Z " fill="#001221" transform="translate(117.54296875,144.90234375)"/>
<path d="M0 0 C0.99 0 1.98 0 3 0 C3.01030746 0.60943451 3.02061493 1.21886902 3.03123474 1.84677124 C3.13916953 8.17302465 3.25377788 14.49913185 3.37231445 20.82519531 C3.41570516 23.18812001 3.45737713 25.55107691 3.49731445 27.9140625 C3.55491693 31.30478636 3.6186401 34.6953475 3.68359375 38.0859375 C3.70030624 39.14743011 3.71701874 40.20892273 3.73423767 41.30258179 C3.75418289 42.28344757 3.77412811 43.26431335 3.79467773 44.27490234 C3.81022202 45.14094086 3.8257663 46.00697937 3.84178162 46.89926147 C3.87096592 49.05757893 3.87096592 49.05757893 5 51 C4.01 51 3.02 51 2 51 C2 35.49 2 19.98 2 4 C1.34 4 0.68 4 0 4 C0 4.66 0 5.32 0 6 C-1.32 5.67 -2.64 5.34 -4 5 C-2.1875 2.5 -2.1875 2.5 0 0 Z " fill="#469CC4" transform="translate(269,200)"/>
<path d="M0 0 C0.66 0 1.32 0 2 0 C2.66666667 2.66666667 3.33333333 5.33333333 4 8 C4.1959375 8.70125 4.391875 9.4025 4.59375 10.125 C5.08156531 12.37645529 4.69750801 13.82997507 4 16 C3.01 16 2.02 16 1 16 C1 20.62 1 25.24 1 30 C0.67 30 0.34 30 0 30 C0 20.1 0 10.2 0 0 Z " fill="#8C2A57" transform="translate(330,320)"/>
<path d="M0 0 C2 1 2 1 3 3 C2.34 3 1.68 3 1 3 C0.9175 3.61875 0.835 4.2375 0.75 4.875 C0 7 0 7 -1.9375 8.125 C-2.618125 8.41375 -3.29875 8.7025 -4 9 C-4.66 9.66 -5.32 10.32 -6 11 C-7.98 10.34 -9.96 9.68 -12 9 C-12 8.34 -12 7.68 -12 7 C-10.68 6.67 -9.36 6.34 -8 6 C-8 5.34 -8 4.68 -8 4 C-6.71349294 3.30289269 -5.42059335 2.61757124 -4.125 1.9375 C-3.40570313 1.55464844 -2.68640625 1.17179688 -1.9453125 0.77734375 C-1.30335938 0.52082031 -0.66140625 0.26429688 0 0 Z " fill="#3599D8" transform="translate(150,245)"/>
<path d="M0 0 C3.84019769 0.04114498 3.84019769 0.04114498 6 1.625 C6.37125 2.16125 6.7425 2.6975 7.125 3.25 C7.785 3.91 8.445 4.57 9.125 5.25 C7.475 5.25 5.825 5.25 4.125 5.25 C4.125 4.59 4.125 3.93 4.125 3.25 C1.815 3.25 -0.495 3.25 -2.875 3.25 C-3.205 15.13 -3.535 27.01 -3.875 39.25 C-4.205 39.25 -4.535 39.25 -4.875 39.25 C-4.89964849 33.85653012 -4.91783531 28.46309275 -4.92993164 23.06958008 C-4.93497231 21.23331125 -4.94180477 19.39704646 -4.95043945 17.56079102 C-4.96251672 14.92723599 -4.96823081 12.29373384 -4.97265625 9.66015625 C-4.97781754 8.83411392 -4.98297882 8.00807159 -4.98829651 7.15699768 C-4.98849205 5.18763632 -4.93704152 3.21838386 -4.875 1.25 C-3.875 0.25 -3.875 0.25 0 0 Z " fill="#962634" transform="translate(334.875,280.75)"/>
<path d="M0 0 C7.22869955 3.53363229 7.22869955 3.53363229 10.6875 5.625 C12.93481794 7.05192055 12.93481794 7.05192055 15.3125 7.875 C19.12880063 9.47252119 22.63009943 11.60009562 26 14 C26 14.33 26 14.66 26 15 C23.69 14.67 21.38 14.34 19 14 C19 13.34 19 12.68 19 12 C17.68 12 16.36 12 15 12 C14.67 11.34 14.34 10.68 14 10 C12.17712703 9.06154746 10.31635447 8.19564908 8.4375 7.375 C6.91962891 6.70597656 6.91962891 6.70597656 5.37109375 6.0234375 C4.19740234 5.51683594 4.19740234 5.51683594 3 5 C3 4.34 3 3.68 3 3 C2.01 3 1.02 3 0 3 C0 2.01 0 1.02 0 0 Z " fill="#782648" transform="translate(357,293)"/>
<path d="M0 0 C1.98 0 3.96 0 6 0 C-1.29972073 5.70024812 -8.85427059 9.5007001 -18 11 C-17.26418258 9.8450079 -16.51069961 8.70125815 -15.75 7.5625 C-15.33234375 6.92441406 -14.9146875 6.28632813 -14.484375 5.62890625 C-12.72751123 3.70097943 -11.53910197 3.38520564 -9 3 C-9.33 3.99 -9.66 4.98 -10 6 C-8.906875 5.34 -7.81375 4.68 -6.6875 4 C-4.06292462 2.41535071 -3.1743622 2 0 2 C0 1.34 0 0.68 0 0 Z " fill="#95275E" transform="translate(362,333)"/>
<path d="M0 0 C0.66 0.33 1.32 0.66 2 1 C1.34 1.66 0.68 2.32 0 3 C-0.16670273 5.95826106 -0.16670273 5.95826106 0 9 C0 9.99 0 10.98 0 12 C-3 12 -3 12 -5 11 C-5.33 13.64 -5.66 16.28 -6 19 C-6.99 19 -7.98 19 -9 19 C-9.125 16.625 -9.125 16.625 -9 14 C-8.34 13.34 -7.68 12.68 -7 12 C-6.60235737 10.01178687 -6.26224651 8.01055661 -6 6 C-5.34 6 -4.68 6 -4 6 C-3.71125 5.38125 -3.4225 4.7625 -3.125 4.125 C-2 2 -2 2 0 0 Z " fill="#349AD3" transform="translate(102,170)"/>
<path d="M0 0 C0.66 0 1.32 0 2 0 C2 0.66 2 1.32 2 2 C2.804375 2.2475 3.60875 2.495 4.4375 2.75 C5.283125 3.1625 6.12875 3.575 7 4 C7.625 6 7.625 6 8 8 C8.99 8.66 9.98 9.32 11 10 C11 10.66 11 11.32 11 12 C12.65 11.67 14.3 11.34 16 11 C16.33 9.02 16.66 7.04 17 5 C18.65 5 20.3 5 22 5 C21.02180976 6.31322788 20.0424189 7.62556152 19.0625 8.9375 C18.24458984 10.03384766 18.24458984 10.03384766 17.41015625 11.15234375 C16 13 16 13 15 14 C13.33382885 14.04063832 11.66611905 14.042721 10 14 C10 13.01 10 12.02 10 11 C9.401875 10.7525 8.80375 10.505 8.1875 10.25 C5.68373081 8.81927475 4.51927612 7.4308418 3 5 C3 4.34 3 3.68 3 3 C2.34 3 1.68 3 1 3 C0.67 2.01 0.34 1.02 0 0 Z " fill="#022233" transform="translate(226,221)"/>
<path d="M0 0 C0.33 0.66 0.66 1.32 1 2 C-0.25 5.5625 -0.25 5.5625 -2 9 C-2.99 9.33 -3.98 9.66 -5 10 C-5.99 11.485 -5.99 11.485 -7 13 C-7.66 13 -8.32 13 -9 13 C-9.144375 13.639375 -9.28875 14.27875 -9.4375 14.9375 C-10 17 -10 17 -11 18 C-13.33944736 17.71269945 -15.6739143 17.38063221 -18 17 C-18 16.67 -18 16.34 -18 16 C-17.13375 15.814375 -16.2675 15.62875 -15.375 15.4375 C-10.89402357 13.52893596 -8.93852624 10.76734134 -6 7 C-4.88132302 5.68210658 -3.75654836 4.36935866 -2.625 3.0625 C-2.12226563 2.47597656 -1.61953125 1.88945312 -1.1015625 1.28515625 C-0.73804688 0.86105469 -0.37453125 0.43695313 0 0 Z " fill="#051C2F" transform="translate(254,188)"/>
<path d="M0 0 C0.625 1.875 0.625 1.875 1 4 C0.34 4.66 -0.32 5.32 -1 6 C-1.39764263 7.98821313 -1.73775349 9.98944339 -2 12 C-1.34 12.33 -0.68 12.66 0 13 C-0.15597656 13.55429688 -0.31195313 14.10859375 -0.47265625 14.6796875 C-0.66730469 15.40414062 -0.86195312 16.12859375 -1.0625 16.875 C-1.25972656 17.59429687 -1.45695312 18.31359375 -1.66015625 19.0546875 C-2.21132607 21.07273593 -2.21132607 21.07273593 -1 23 C-1.66 23.66 -2.32 24.32 -3 25 C-5.14603046 22.85396954 -4.27775668 18.27031505 -4.3125 15.3125 C-4.34150391 14.50876953 -4.37050781 13.70503906 -4.40039062 12.87695312 C-4.46002503 7.26673154 -3.56700838 4.35498657 0 0 Z " fill="#458BC8" transform="translate(95,178)"/>
<path d="M0 0 C16.17 0 32.34 0 49 0 C49 0.33 49 0.66 49 1 C48.41784225 1.00808685 47.83568451 1.01617371 47.23588562 1.02450562 C41.1851083 1.11046097 35.13466201 1.20996043 29.08422852 1.31738281 C26.82517041 1.35570221 24.56605068 1.39054981 22.30688477 1.421875 C19.06243843 1.46746107 15.81841752 1.52546638 12.57421875 1.5859375 C11.56163498 1.59748871 10.54905121 1.60903992 9.50578308 1.62094116 C8.56503433 1.64081085 7.62428558 1.66068054 6.6550293 1.68115234 C5.41259712 1.70113785 5.41259712 1.70113785 4.14506531 1.7215271 C1.70403867 1.87738759 1.70403867 1.87738759 -1 4 C-0.67 2.68 -0.34 1.36 0 0 Z " fill="#000C18" transform="translate(335,207)"/>
<path d="M0 0 C1.43836751 0.11458693 2.87570966 0.24209116 4.3125 0.375 C5.51326172 0.47941406 5.51326172 0.47941406 6.73828125 0.5859375 C9 1 9 1 12 3 C12.1875 5.625 12.1875 5.625 12 8 C9.35261084 9.4606285 8.10551666 10 5 10 C5 7.03 5 4.06 5 1 C3.35 1 1.7 1 0 1 C0 0.67 0 0.34 0 0 Z " fill="#C11C32" transform="translate(379,311)"/>
<path d="M0 0 C-2.56627864 3.13656279 -5.14021634 3.9424012 -9 5 C-12.578125 5.265625 -12.578125 5.265625 -16.25 5.25 C-17.47203125 5.25515625 -18.6940625 5.2603125 -19.953125 5.265625 C-23 5 -23 5 -25 3 C-21.01748642 2.44105073 -17.33914579 1.99425177 -13.3125 2.0625 C-8.51397235 1.97196174 -4.90131372 -0.28007507 0 0 Z " fill="#4882B1" transform="translate(139,229)"/>
<path d="M0 0 C0.99 0.495 0.99 0.495 2 1 C1.67 8.26 1.34 15.52 1 23 C1.66 23.33 2.32 23.66 3 24 C2.67 28.95 2.34 33.9 2 39 C1.67 39 1.34 39 1 39 C-0.3173767 31.03350151 -0.11089426 23.04805625 -0.0625 15 C-0.05747576 13.54297029 -0.05291449 12.0859389 -0.04882812 10.62890625 C-0.03789388 7.0859023 -0.02068 3.54296203 0 0 Z " fill="#3D97C0" transform="translate(54,137)"/>
<path d="M0 0 C4.17839475 0.47302582 7.42960011 1.7682828 11.3125 3.375 C11.3125 4.035 11.3125 4.695 11.3125 5.375 C12.3025 5.705 13.2925 6.035 14.3125 6.375 C13.5625 11.125 13.5625 11.125 11.3125 13.375 C10.9825 11.065 10.6525 8.755 10.3125 6.375 C9.3225 6.045 8.3325 5.715 7.3125 5.375 C7.3125 4.715 7.3125 4.055 7.3125 3.375 C3.0225 3.375 -1.2675 3.375 -5.6875 3.375 C-2.6875 0.375 -2.6875 0.375 0 0 Z " fill="#0A354E" transform="translate(154.6875,218.625)"/>
<path d="M0 0 C1.15657053 3.37912235 0.81583063 5.15482931 -0.42578125 8.4609375 C-2.39226523 14.55625439 -2.33802644 20.27201212 -2.1875 26.625 C-2.17396484 27.72457031 -2.16042969 28.82414062 -2.14648438 29.95703125 C-2.111508 32.63855332 -2.06243072 35.31900073 -2 38 C-2.33 38 -2.66 38 -3 38 C-4.05925683 32.81300423 -4.14970761 27.82933797 -4.125 22.5625 C-4.12886719 21.74201172 -4.13273437 20.92152344 -4.13671875 20.07617188 C-4.1249733 12.71764853 -3.67262641 6.54685578 0 0 Z " fill="#0A152C" transform="translate(73,176)"/>
<path d="M0 0 C4.59890258 0.33446564 8.02179297 0.8752624 12.125 3 C17.27133791 5.36322809 21.95986645 5.65956864 27.5625 5.75 C28.47580078 5.77964844 29.38910156 5.80929688 30.33007812 5.83984375 C32.55346923 5.9096885 34.77586468 5.96279745 37 6 C37 6.33 37 6.66 37 7 C33.7085089 7.08857863 30.41733195 7.1409104 27.125 7.1875 C25.74828125 7.22520508 25.74828125 7.22520508 24.34375 7.26367188 C15.40592348 7.35808554 7.8406023 5.33296443 0 1 C0 0.67 0 0.34 0 0 Z " fill="#213252" transform="translate(96,246)"/>
<path d="M0 0 C1.32 0 2.64 0 4 0 C5.61949011 2.57213134 6.04408751 3.67669159 5.625 6.75 C5.41875 7.4925 5.2125 8.235 5 9 C4.01 9.33 3.02 9.66 2 10 C2 10.99 2 11.98 2 13 C0.02 13.33 -1.96 13.66 -4 14 C-3.1875 12.0625 -3.1875 12.0625 -2 10 C-1.01 9.67 -0.02 9.34 1 9 C1.67673447 5.59679066 1.67673447 5.59679066 2 2 C1.34 1.34 0.68 0.68 0 0 Z " fill="#2D97C1" transform="translate(166,223)"/>
<path d="M0 0 C0.99 0.33 1.98 0.66 3 1 C3 1.66 3 2.32 3 3 C4.32 3 5.64 3 7 3 C7 3.66 7 4.32 7 5 C9.64 5.33 12.28 5.66 15 6 C15 6.33 15 6.66 15 7 C13.08364783 7.05423638 11.16685075 7.09289963 9.25 7.125 C7.64898437 7.15980469 7.64898437 7.15980469 6.015625 7.1953125 C3.07529894 7.00487687 1.47638122 6.52670104 -1 5 C-0.67 3.35 -0.34 1.7 0 0 Z " fill="#97265D" transform="translate(369,302)"/>
<path d="M0 0 C2.96175123 0.61277612 4.38058783 1.25372522 7 3 C9.15274948 2.69159401 9.15274948 2.69159401 11 2 C11.144375 2.78375 11.28875 3.5675 11.4375 4.375 C11.87798925 6.96421018 11.87798925 6.96421018 13 9 C3.12761506 6.21548117 3.12761506 6.21548117 0 2 C0 1.34 0 0.68 0 0 Z " fill="#4D71A5" transform="translate(101,224)"/>
<path d="M0 0 C4.39718646 1.09929662 4.79997334 1.55450729 7.25 5.0625 C8.03117188 6.16271484 8.03117188 6.16271484 8.828125 7.28515625 C9.21484375 7.85105469 9.6015625 8.41695312 10 9 C9.01 9.495 9.01 9.495 8 10 C6.29115995 8.37660195 4.62553283 6.70680947 3 5 C3 4.34 3 3.68 3 3 C2.34 3 1.68 3 1 3 C1 7.62 1 12.24 1 17 C0.67 17 0.34 17 0 17 C0 11.39 0 5.78 0 0 Z " fill="#369BC6" transform="translate(207,202)"/>
<path d="M0 0 C0.33 0 0.66 0 1 0 C1.04898438 1.02738281 1.09796875 2.05476562 1.1484375 3.11328125 C1.57248395 11.21423322 2.26548301 19.05153381 4 27 C0.55402539 24.02393102 -0.83139997 20.9117529 -1.23046875 16.38671875 C-1.1422344 10.84399757 -0.82769737 5.48349505 0 0 Z " fill="#566DA0" transform="translate(68,192)"/>
<path d="M0 0 C0.5259375 0.23332031 1.051875 0.46664063 1.59375 0.70703125 C-0.32200126 1.83358938 -2.23888719 2.95821812 -4.15625 4.08203125 C-5.22359375 4.70851563 -6.2909375 5.335 -7.390625 5.98046875 C-13.99694767 9.7628452 -13.99694767 9.7628452 -17.15625 9.33203125 C-18.27 9.02265625 -18.27 9.02265625 -19.40625 8.70703125 C-18.8803125 8.45308594 -18.354375 8.19914062 -17.8125 7.9375 C-15.95428037 6.98727405 -14.12614237 5.97808107 -12.3125 4.9453125 C-10.62640625 3.99205078 -10.62640625 3.99205078 -8.90625 3.01953125 C-7.7821875 2.37628906 -6.658125 1.73304688 -5.5 1.0703125 C-2.40625 -0.29296875 -2.40625 -0.29296875 0 0 Z " fill="#732C65" transform="translate(350.40625,342.29296875)"/>
<path d="M0 0 C0.66 0 1.32 0 2 0 C1.54738642 1.43931117 1.08767021 2.87638999 0.625 4.3125 C0.36976562 5.11300781 0.11453125 5.91351563 -0.1484375 6.73828125 C-1 9 -1 9 -3 12 C-3.99 12 -4.98 12 -6 12 C-6.33 12.66 -6.66 13.32 -7 14 C-7.625 11.6875 -7.625 11.6875 -8 9 C-7.34 8.01 -6.68 7.02 -6 6 C-6 6.66 -6 7.32 -6 8 C-5.34 7.67 -4.68 7.34 -4 7 C-3.67 6.01 -3.34 5.02 -3 4 C-2.34 3.67 -1.68 3.34 -1 3 C-0.67 2.01 -0.34 1.02 0 0 Z " fill="#458FC7" transform="translate(73,172)"/>
<path d="M0 0 C3 0 3 0 5.5625 2.5 C6.7690625 3.7375 6.7690625 3.7375 8 5 C10.12364481 5.22609337 10.12364481 5.22609337 11.625 3.5 C12.07875 3.005 12.5325 2.51 13 2 C13.99 2.33 14.98 2.66 16 3 C11.77358491 7.83018868 11.77358491 7.83018868 8.4375 8.5625 C5.25919329 7.82904461 4.00598449 6.52605454 2 4 C2 3.34 2 2.68 2 2 C1.34 2 0.68 2 0 2 C0 1.34 0 0.68 0 0 Z " fill="#3592BC" transform="translate(230,196)"/>
<path d="M0 0 C2.31 0 4.62 0 7 0 C6.67 0.99 6.34 1.98 6 3 C5.34 3 4.68 3 4 3 C3.566875 4.2065625 3.566875 4.2065625 3.125 5.4375 C2 8 2 8 0 9 C-2 6 -2 6 -1.6875 3.9375 C-1 2 -1 2 0 0 Z " fill="#DDDDDD" transform="translate(454,279)"/>
<path d="M0 0 C3.68746328 0.5028359 6.82109196 0.99846531 10 3 C10.33 3.66 10.66 4.32 11 5 C4.07 4.505 4.07 4.505 -3 4 C-3 3.01 -3 2.02 -3 1 C-2.01 1.33 -1.02 1.66 0 2 C0 1.34 0 0.68 0 0 Z " fill="#4D7FBE" transform="translate(116,254)"/>
<path d="M0 0 C0 0.66 0 1.32 0 2 C-1.07378906 1.97679687 -2.14757812 1.95359375 -3.25390625 1.9296875 C-4.69009715 1.91091376 -6.12629565 1.8927153 -7.5625 1.875 C-8.26697266 1.85824219 -8.97144531 1.84148437 -9.69726562 1.82421875 C-14.51891822 1.77977956 -18.42297438 2.47231996 -23 4 C-22.3828125 2.05078125 -22.3828125 2.05078125 -21 0 C-14.15045242 -1.60081494 -6.88598935 -1.21517459 0 0 Z " fill="#01182C" transform="translate(132,162)"/>
<path d="M0 0 C1.66611905 -0.042721 3.33382885 -0.04063832 5 0 C6 1 6 1 6.09765625 3.94140625 C6.08605469 5.13636719 6.07445312 6.33132812 6.0625 7.5625 C6.05347656 8.76003906 6.04445313 9.95757812 6.03515625 11.19140625 C6.02355469 12.11824219 6.01195312 13.04507813 6 14 C5.01 14.495 5.01 14.495 4 15 C3.96261719 14.22914063 3.92523438 13.45828125 3.88671875 12.6640625 C3.82097656 11.66117188 3.75523437 10.65828125 3.6875 9.625 C3.62949219 8.62726563 3.57148438 7.62953125 3.51171875 6.6015625 C3.34285156 5.74304688 3.17398437 4.88453125 3 4 C2.01 3.34 1.02 2.68 0 2 C0 1.34 0 0.68 0 0 Z " fill="#011120" transform="translate(386,147)"/>
<path d="M0 0 C1.32 0.33 2.64 0.66 4 1 C-1.16923077 5.92307692 -1.16923077 5.92307692 -5.375 6.3125 C-6.674375 6.1578125 -6.674375 6.1578125 -8 6 C-8 4.68 -8 3.36 -8 2 C-6 1 -6 1 -2.875 1.9375 C-1.92625 2.288125 -0.9775 2.63875 0 3 C0 2.01 0 1.02 0 0 Z " fill="#3796CA" transform="translate(143,223)"/>
<path d="M0 0 C-0.33 0.99 -0.66 1.98 -1 3 C-5.08278034 4.08318662 -8.17878835 3.83473185 -12.3125 3.0625 C-13.38113281 2.86785156 -14.44976562 2.67320312 -15.55078125 2.47265625 C-16.35902344 2.31667969 -17.16726562 2.16070312 -18 2 C-18 1.67 -18 1.34 -18 1 C-15.75013201 0.83156069 -13.50009983 0.66531346 -11.25 0.5 C-9.37054688 0.36078125 -9.37054688 0.36078125 -7.453125 0.21875 C-4.97265229 0.06161598 -2.48544483 0 0 0 Z " fill="#0A1929" transform="translate(134,233)"/>
<path d="M0 0 C0 3.59857954 -0.95830515 5.09451118 -3 8 C-3.66 8 -4.32 8 -5 8 C-5.20625 8.7425 -5.4125 9.485 -5.625 10.25 C-7.39615589 13.79231177 -9.63427951 15.02446841 -13 17 C-11.79618552 14.50638429 -10.54571278 12.31856917 -9 10 C-8.34 10 -7.68 10 -7 10 C-6.773125 9.46375 -6.54625 8.9275 -6.3125 8.375 C-4.56617944 5.21499137 -2.3597151 2.7323017 0 0 Z " fill="#093146" transform="translate(279,157)"/>
<path d="M0 0 C0.66 0.33 1.32 0.66 2 1 C-1.75 4 -1.75 4 -4 4 C-4 4.66 -4 5.32 -4 6 C-5.1446875 6.1546875 -5.1446875 6.1546875 -6.3125 6.3125 C-9.04354896 6.7598463 -9.04354896 6.7598463 -10.5625 8.625 C-11.036875 9.07875 -11.51125 9.5325 -12 10 C-14.08984375 9.5859375 -14.08984375 9.5859375 -16 9 C-13.89812468 7.68370433 -11.79368324 6.37187003 -9.6875 5.0625 C-8.79514648 4.50272461 -8.79514648 4.50272461 -7.88476562 3.93164062 C-5.27252256 2.31175806 -2.92778827 0.97592942 0 0 Z " fill="#36040A" transform="translate(384,324)"/>
<path d="M0 0 C0.99 0.33 1.98 0.66 3 1 C1.35767739 3.00297785 -0.28861244 5.00243908 -1.9375 7 C-2.40607422 7.57234375 -2.87464844 8.1446875 -3.35742188 8.734375 C-4.54934328 10.17497065 -5.77232588 11.58974871 -7 13 C-7.33 13 -7.66 13 -8 13 C-8.3125 10.1875 -8.3125 10.1875 -8 7 C-5.5625 5.25 -5.5625 5.25 -3 4 C-2.67 3.34 -2.34 2.68 -2 2 C-1.34 2 -0.68 2 0 2 C0 1.34 0 0.68 0 0 Z " fill="#030F1A" transform="translate(265,202)"/>
<path d="M0 0 C4.95 0 9.9 0 15 0 C15.33 0.66 15.66 1.32 16 2 C15.02417969 2.06058594 14.04835938 2.12117187 13.04296875 2.18359375 C11.13451172 2.30927734 11.13451172 2.30927734 9.1875 2.4375 C7.92292969 2.51871094 6.65835937 2.59992188 5.35546875 2.68359375 C2.00818107 2.87184547 2.00818107 2.87184547 -1 4 C-0.67 2.68 -0.34 1.36 0 0 Z " fill="#082C40" transform="translate(413,146)"/>
<path d="M0 0 C2.74596832 1.37298416 3.13089651 2.99839889 4.4375 5.75 C6.14577265 9.27773465 7.89994087 12.68411716 10 16 C9.01 16 8.02 16 7 16 C6.67 14.68 6.34 13.36 6 12 C5.01 12 4.02 12 3 12 C0.60926555 8.17482487 0.44033448 4.40334476 0 0 Z " fill="#4B5083" transform="translate(72,218)"/>
<path d="M0 0 C3.51865145 0.3015987 5.00757452 1.00605962 7.8125 3.25 C10 6 10 6 10.3125 8.8125 C10.1578125 9.8953125 10.1578125 9.8953125 10 11 C9.278125 10.2575 8.55625 9.515 7.8125 8.75 C5.09288953 5.98732731 5.09288953 5.98732731 2.1875 3.8125 C1.465625 3.214375 0.74375 2.61625 0 2 C0 1.34 0 0.68 0 0 Z " fill="#011121" transform="translate(206,198)"/>
<path d="M0 0 C3.45925163 1.2491742 6.14693203 2.67527795 9 5 C8.50769231 10.53846154 8.50769231 10.53846154 5.9375 12.875 C4.9784375 13.431875 4.9784375 13.431875 4 14 C3.34 13.67 2.68 13.34 2 13 C2.66 12.01 3.32 11.02 4 10 C4.99 10 5.98 10 7 10 C6.89386164 7.54775306 6.89386164 7.54775306 6 5 C3.52869082 3.84478498 3.52869082 3.84478498 1 3 C0.67 2.01 0.34 1.02 0 0 Z " fill="#8B2231" transform="translate(384,309)"/>
<path d="M0 0 C2.31 0.33 4.62 0.66 7 1 C7 1.66 7 2.32 7 3 C3.70450534 4.72264494 0.66881155 6.29445932 -3 7 C-1.125 2.25 -1.125 2.25 0 0 Z " fill="#24AAE1" transform="translate(83,152)"/>
<path d="M0 0 C0.33 0 0.66 0 1 0 C1.05399736 1.45792884 1.09279177 2.91642712 1.125 4.375 C1.14820313 5.18710938 1.17140625 5.99921875 1.1953125 6.8359375 C1 9 1 9 -1 11 C-3.74485593 11.14507695 -6.38480543 11.18652423 -9.125 11.125 C-9.87910156 11.11597656 -10.63320313 11.10695312 -11.41015625 11.09765625 C-13.27357254 11.0740687 -15.13682593 11.03819719 -17 11 C-17 10.67 -17 10.34 -17 10 C-12.05 10 -7.1 10 -2 10 C-2 8.68 -2 7.36 -2 6 C-1.34 6 -0.68 6 0 6 C0 4.02 0 2.04 0 0 Z " fill="#021E31" transform="translate(430,240)"/>
<path d="M0 0 C1.32 0 2.64 0 4 0 C3.67 0.99 3.34 1.98 3 3 C2.01 2.67 1.02 2.34 0 2 C-0.103125 2.763125 -0.20625 3.52625 -0.3125 4.3125 C-1.05067115 7.19807812 -1.62140803 8.26179817 -4 10 C-4.99 10 -5.98 10 -7 10 C-6.1875 8.0625 -6.1875 8.0625 -5 6 C-4.01 5.67 -3.02 5.34 -2 5 C-0.78130071 2.49552484 -0.78130071 2.49552484 0 0 Z " fill="#051E34" transform="translate(287,147)"/>
<path d="M0 0 C2.64 0 5.28 0 8 0 C8 0.66 8 1.32 8 2 C9.3303125 1.9071875 9.3303125 1.9071875 10.6875 1.8125 C14.34485017 2.01951982 16.04777151 2.916074 19 5 C18.01 5.66 17.02 6.32 16 7 C15.62875 6.505 15.2575 6.01 14.875 5.5 C12.25305607 3.40244486 10.26157528 3.78256165 7 4 C6.67 3.01 6.34 2.02 6 1 C4.02 1 2.04 1 0 1 C0 0.67 0 0.34 0 0 Z " fill="#062538" transform="translate(128,145)"/>
<path d="M0 0 C6.15234375 0.5859375 6.15234375 0.5859375 8 1 C8.33 1.66 8.66 2.32 9 3 C9.825 3.28875 10.65 3.5775 11.5 3.875 C14 5 14 5 14.8125 7.125 C14.874375 7.74375 14.93625 8.3625 15 9 C14.01 8.67 13.02 8.34 12 8 C12 7.34 12 6.68 12 6 C10.948125 5.7525 9.89625 5.505 8.8125 5.25 C5.1866459 4.23299214 2.80089228 2.54626571 0 0 Z " fill="#3190B3" transform="translate(142,147)"/>
<path d="M0 0 C0.99 0.33 1.98 0.66 3 1 C3 1.99 3 2.98 3 4 C4.65 4.33 6.3 4.66 8 5 C8.12375 5.61875 8.2475 6.2375 8.375 6.875 C8.87197356 9.19120832 8.87197356 9.19120832 11 11 C8 11 8 11 5.8125 9.125 C4 7 4 7 4 5 C3.34 5 2.68 5 2 5 C1.34 3.35 0.68 1.7 0 0 Z " fill="#2E82A4" transform="translate(218,181)"/>
<path d="M0 0 C3.18462224 0.94677958 4.73697662 1.66441845 6.8125 4.3125 C8.06161737 7.13944983 8.26151458 8.94899661 8 12 C6.68 12.33 5.36 12.66 4 13 C4.4021875 11.7315625 4.4021875 11.7315625 4.8125 10.4375 C5.07245188 5.6717155 3.00070722 3.50947765 0 0 Z " fill="#38A0CA" transform="translate(163,161)"/>
<path d="M0 0 C3.3 0 6.6 0 10 0 C10.33 0.66 10.66 1.32 11 2 C8.69 2 6.38 2 4 2 C4 2.66 4 3.32 4 4 C2.68 4.33 1.36 4.66 0 5 C0 3.35 0 1.7 0 0 Z " fill="#24AAE4" transform="translate(96,144)"/>
<path d="M0 0 C1.98 0 3.96 0 6 0 C-2.75 7 -2.75 7 -7 7 C-6 4 -6 4 -3 2 C-2.01 2 -1.02 2 0 2 C0 1.34 0 0.68 0 0 Z " fill="#932946" transform="translate(362,333)"/>
<path d="M0 0 C-1.24252679 0.84443568 -2.4943886 1.6751458 -3.75 2.5 C-4.79414062 3.19609375 -4.79414062 3.19609375 -5.859375 3.90625 C-8 5 -8 5 -12 5 C-12 4.34 -12 3.68 -12 3 C-10.75823305 2.29773859 -9.50614401 1.61370891 -8.25 0.9375 C-7.20585938 0.36322266 -7.20585938 0.36322266 -6.140625 -0.22265625 C-3.63859372 -1.1312406 -2.4667645 -0.88336837 0 0 Z " fill="#2C87B2" transform="translate(116,165)"/>
<path d="M0 0 C0 0.66 0 1.32 0 2 C-1.32 2.33 -2.64 2.66 -4 3 C-4 3.66 -4 4.32 -4 5 C-5.62626404 6.38232443 -7.2925002 7.71937515 -9 9 C-9.375 6.75 -9.375 6.75 -9 4 C-5.8680624 1.42485131 -4.10589421 0 0 0 Z " fill="#3499C3" transform="translate(90,155)"/>
<path d="M0 0 C4.75 0.75 4.75 0.75 7 3 C7.125 5.625 7.125 5.625 7 8 C4.35247996 5.42215154 2.05567935 3.08351902 0 0 Z " fill="#0A0B1F" transform="translate(81,232)"/>
<path d="M0 0 C0.99 0 1.98 0 3 0 C3 2.64 3 5.28 3 8 C2.67 6.68 2.34 5.36 2 4 C1.34 4 0.68 4 0 4 C0 4.66 0 5.32 0 6 C-1.32 5.67 -2.64 5.34 -4 5 C-2.1875 2.5 -2.1875 2.5 0 0 Z " fill="#378DAE" transform="translate(269,200)"/>
<path d="M0 0 C0.33 0.66 0.66 1.32 1 2 C0.67 2.66 0.34 3.32 0 4 C-0.99 4 -1.98 4 -3 4 C-3.103125 4.639375 -3.20625 5.27875 -3.3125 5.9375 C-3.539375 6.618125 -3.76625 7.29875 -4 8 C-4.99 8.33 -5.98 8.66 -7 9 C-7.66 8.34 -8.32 7.68 -9 7 C-6.03 4.69 -3.06 2.38 0 0 Z " fill="#2F8BB4" transform="translate(161,237)"/>
<path d="M0 0 C7.75 -0.125 7.75 -0.125 10 1 C10 1.99 10 2.98 10 4 C6.7 4 3.4 4 0 4 C0 2.66666667 0 1.33333333 0 0 Z " fill="#2F9AC7" transform="translate(150,216)"/>
<path d="M0 0 C1.49828872 3.88235819 0.43110582 6.43449288 -0.9375 10.25 C-1.31777344 11.32765625 -1.69804688 12.4053125 -2.08984375 13.515625 C-2.39019531 14.33546875 -2.69054687 15.1553125 -3 16 C-4.63368652 11.09894045 -3.54088797 7.18995354 -1.4375 2.5625 C-0.7259375 1.2940625 -0.7259375 1.2940625 0 0 Z " fill="#16344E" transform="translate(73,176)"/>
<path d="M0 0 C0.66 0.33 1.32 0.66 2 1 C0.4900576 5.11802472 -0.98114319 9.10272859 -3 13 C-3.59222907 9.98735648 -4.05823431 7.07583023 -4 4 C-2.0625 1.4375 -2.0625 1.4375 0 0 Z " fill="#051222" transform="translate(92,179)"/>
<path d="M0 0 C0 1.65 0 3.3 0 5 C-1.98 5.99 -1.98 5.99 -4 7 C-4 7.66 -4 8.32 -4 9 C-4.66 9 -5.32 9 -6 9 C-3.4 0 -3.4 0 0 0 Z " fill="#081E2F" transform="translate(80,167)"/>
<path d="M0 0 C0 0.66 0 1.32 0 2 C-4.95 4.475 -4.95 4.475 -10 7 C-9.67 5.68 -9.34 4.36 -9 3 C-3.10714286 0 -3.10714286 0 0 0 Z " fill="#35A1CE" transform="translate(100,148)"/>
<path d="M0 0 C1.65 0 3.3 0 5 0 C4.34 1.98 3.68 3.96 3 6 C1.68 6 0.36 6 -1 6 C-0.67 4.02 -0.34 2.04 0 0 Z " fill="#299ECD" transform="translate(187,141)"/>
<path d="M0 0 C1.46109063 0.25554054 2.91888096 0.53000372 4.375 0.8125 C5.59316406 1.03873047 5.59316406 1.03873047 6.8359375 1.26953125 C9 2 9 2 11 5 C8.69 4.67 6.38 4.34 4 4 C4 3.34 4 2.68 4 2 C2.68 2 1.36 2 0 2 C0 1.34 0 0.68 0 0 Z " fill="#6A2650" transform="translate(372,303)"/>
<path d="M0 0 C0 0.99 0 1.98 0 3 C-0.99 3.495 -0.99 3.495 -2 4 C-2.33 4.99 -2.66 5.98 -3 7 C-6 9 -6 9 -8.1875 8.625 C-8.785625 8.41875 -9.38375 8.2125 -10 8 C-6.25 5 -6.25 5 -4 5 C-3.67 4.01 -3.34 3.02 -3 2 C-2.01 1.34 -1.02 0.68 0 0 Z " fill="#09263A" transform="translate(148,222)"/>
<path d="M0 0 C0.66 1.32 1.32 2.64 2 4 C-0.39509338 6.89932357 -2.31245243 7.50168276 -6 8 C-5.67 7.01 -5.34 6.02 -5 5 C-4.34 5 -3.68 5 -3 5 C-3 4.34 -3 3.68 -3 3 C-2.34 3 -1.68 3 -1 3 C-0.67 2.01 -0.34 1.02 0 0 Z " fill="#2E90BB" transform="translate(257,215)"/>
<path d="M0 0 C-1.26538369 0.84158536 -2.53753779 1.67299748 -3.8125 2.5 C-4.87404297 3.19609375 -4.87404297 3.19609375 -5.95703125 3.90625 C-8 5 -8 5 -11 5 C-11 4.34 -11 3.68 -11 3 C-9.35 2.67 -7.7 2.34 -6 2 C-6 1.34 -6 0.68 -6 0 C-3.50907189 -1.24546405 -2.58919267 -0.7767578 0 0 Z " fill="#02172B" transform="translate(155,243)"/>
<path d="M0 0 C2.97 0.495 2.97 0.495 6 1 C6.6875 3.3125 6.6875 3.3125 7 6 C5.5625 7.8125 5.5625 7.8125 4 9 C3.896875 7.88625 3.79375 6.7725 3.6875 5.625 C3.460625 4.42875 3.23375 3.2325 3 2 C2.01 1.34 1.02 0.68 0 0 Z " fill="#032137" transform="translate(162,223)"/>
<path d="M0 0 C1.65 0 3.3 0 5 0 C4.67 0.99 4.34 1.98 4 3 C4.33 3.33 4.66 3.66 5 4 C5 4.66 5 5.32 5 6 C3.68 6.33 2.36 6.66 1 7 C0.67 4.69 0.34 2.38 0 0 Z " fill="#5179C0" transform="translate(99,218)"/>
<path d="M0 0 C0.66 0 1.32 0 2 0 C0.8141763 3.37503669 -0.27573689 5.64722731 -3 8 C-3.99 7.67 -4.98 7.34 -6 7 C-4.71937515 5.2925002 -3.38232443 3.62626404 -2 2 C-1.34 2 -0.68 2 0 2 C0 1.34 0 0.68 0 0 Z " fill="#06263A" transform="translate(86,158)"/>
<path d="M0 0 C-1.40700382 0.58625159 -2.82622256 1.14324959 -4.25 1.6875 C-5.03890625 2.00074219 -5.8278125 2.31398437 -6.640625 2.63671875 C-9 3 -9 3 -11.296875 1.58203125 C-11.85890625 1.05996094 -12.4209375 0.53789062 -13 0 C-11.20909747 -0.19466332 -9.41723495 -0.38051213 -7.625 -0.5625 C-6.12839844 -0.71912109 -6.12839844 -0.71912109 -4.6015625 -0.87890625 C-2 -1 -2 -1 0 0 Z " fill="#359DCE" transform="translate(160,178)"/>
<path d="M0 0 C1.65 0.33 3.3 0.66 5 1 C4.67 1.99 4.34 2.98 4 4 C3.01 4 2.02 4 1 4 C0.67 5.32 0.34 6.64 0 8 C-1.43088528 5.13822943 -0.59991697 3.06624227 0 0 Z " fill="#319ACA" transform="translate(72,168)"/>
<path d="M0 0 C2.31 1.98 4.62 3.96 7 6 C6.67 6.66 6.34 7.32 6 8 C4.68 8 3.36 8 2 8 C1.34 5.36 0.68 2.72 0 0 Z " fill="#062137" transform="translate(190,148)"/>
<path d="M0 0 C2 1 2 1 3 3 C-3.96428571 5.27678571 -3.96428571 5.27678571 -8 4 C-6.71349294 3.30289269 -5.42059335 2.61757124 -4.125 1.9375 C-3.40570313 1.55464844 -2.68640625 1.17179688 -1.9453125 0.77734375 C-1.30335938 0.52082031 -0.66140625 0.26429688 0 0 Z " fill="#3787B5" transform="translate(150,245)"/>
<path d="M0 0 C0.93423645 3.01031744 1.04449911 3.86650268 0 7 C-2.31 6.67 -4.62 6.34 -7 6 C-6.401875 5.7525 -5.80375 5.505 -5.1875 5.25 C-2.71352479 3.83629988 -1.56629745 2.34944617 0 0 Z " fill="#288DB5" transform="translate(244,230)"/>
<path d="M0 0 C2.475 0.99 2.475 0.99 5 2 C5 3.65 5 5.3 5 7 C3.29115995 5.37660195 1.62553283 3.70680947 0 2 C0 1.34 0 0.68 0 0 Z " fill="#1EAAE5" transform="translate(235,196)"/>
<path d="M0 0 C0.75 1.625 0.75 1.625 1 4 C-0.9375 7.25 -0.9375 7.25 -3 10 C-3.75 8.375 -3.75 8.375 -4 6 C-2.0625 2.75 -2.0625 2.75 0 0 Z " fill="#397397" transform="translate(95,178)"/>
<path d="M0 0 C-1.0625 1.5 -1.0625 1.5 -3 3 C-6.6875 3.1875 -6.6875 3.1875 -10 3 C-4.375 -1.3125 -4.375 -1.3125 0 0 Z " fill="#062437" transform="translate(106,149)"/>
<path d="M0 0 C1.65 0 3.3 0 5 0 C2.525 3.465 2.525 3.465 0 7 C-1 3 -1 3 0 0 Z " fill="#01131F" transform="translate(243,226)"/>
<path d="M0 0 C0.66 0 1.32 0 2 0 C2 0.66 2 1.32 2 2 C4.475 2.99 4.475 2.99 7 4 C6.67 5.32 6.34 6.64 6 8 C4.5 6.625 4.5 6.625 3 5 C3 4.34 3 3.68 3 3 C2.34 3 1.68 3 1 3 C0.67 2.01 0.34 1.02 0 0 Z " fill="#011727" transform="translate(226,221)"/>
<path d="M0 0 C0.99 0 1.98 0 3 0 C1.60667426 3.36720387 0.0210714 4.9859524 -3 7 C-2.38722388 4.03824877 -1.74627478 2.61941217 0 0 Z " fill="#3297C1" transform="translate(253,185)"/>
<path d="M0 0 C2.31 0.33 4.62 0.66 7 1 C3.77208445 3.1519437 2.71599191 3.20086443 -1 3 C-0.67 2.01 -0.34 1.02 0 0 Z " fill="#5862A3" transform="translate(89,244)"/>
<path d="M0 0 C0.99 0.33 1.98 0.66 3 1 C1.02 3.31 -0.96 5.62 -3 8 C-3.33 7.01 -3.66 6.02 -4 5 C-3.34 4.01 -2.68 3.02 -2 2 C-1.34 2 -0.68 2 0 2 C0 1.34 0 0.68 0 0 Z " fill="#011629" transform="translate(265,202)"/>
<path d="M0 0 C0.33 0.66 0.66 1.32 1 2 C-0.25 4.625 -0.25 4.625 -2 7 C-2.99 7 -3.98 7 -5 7 C-3.70700306 4.11562221 -2.34058637 2.12780579 0 0 Z " fill="#06263A" transform="translate(254,188)"/>
<path d="M0 0 C0.99 0.33 1.98 0.66 3 1 C3 1.66 3 2.32 3 3 C3.99 3 4.98 3 6 3 C6 4.32 6 5.64 6 7 C5.34 7 4.68 7 4 7 C0 2.52941176 0 2.52941176 0 0 Z " fill="#1CABE2" transform="translate(218,176)"/>
<path d="M0 0 C0.66 0.33 1.32 0.66 2 1 C0.41641358 4.16717283 -0.45263699 5.73268318 -3.6875 7.3125 C-4.450625 7.539375 -5.21375 7.76625 -6 8 C-6 7.34 -6 6.68 -6 6 C-5.34 6 -4.68 6 -4 6 C-3.71125 5.38125 -3.4225 4.7625 -3.125 4.125 C-2 2 -2 2 0 0 Z " fill="#3487AF" transform="translate(102,170)"/>
<path d="M0 0 C2.475 0.495 2.475 0.495 5 1 C5.33 2.65 5.66 4.3 6 6 C3.97945196 4.35830472 1.97956942 2.69088222 0 1 C0 0.67 0 0.34 0 0 Z " fill="#3194C0" transform="translate(190,147)"/>
<path d="M0 0 C1.32 0.33 2.64 0.66 4 1 C2.8125 2.5625 2.8125 2.5625 1 4 C-1.6875 3.6875 -1.6875 3.6875 -4 3 C-2.68 2.67 -1.36 2.34 0 2 C0 1.34 0 0.68 0 0 Z " fill="#A52032" transform="translate(383,321)"/>
<path d="M0 0 C2.5 2.3125 2.5 2.3125 5 5 C5 5.99 5 6.98 5 8 C4.67 7.34 4.34 6.68 4 6 C3.01 6 2.02 6 1 6 C0.67 4.02 0.34 2.04 0 0 Z " fill="#3095BE" transform="translate(219,214)"/>
<path d="M0 0 C1.65 1.65 3.3 3.3 5 5 C3.35 5 1.7 5 0 5 C-0.33 4.01 -0.66 3.02 -1 2 C-0.67 1.34 -0.34 0.68 0 0 Z " fill="#30A1D1" transform="translate(142,170)"/>
<path d="M0 0 C3 0 3 0 4.75 1.25 C6 3 6 3 5.6875 5.1875 C5.460625 5.785625 5.23375 6.38375 5 7 C0 1.125 0 1.125 0 0 Z " fill="#3495BA" transform="translate(206,166)"/>
<path d="M0 0 C0.99 0.66 1.98 1.32 3 2 C1.35 3.65 -0.3 5.3 -2 7 C-2 5.35 -2 3.7 -2 2 C-1.34 2 -0.68 2 0 2 C0 1.34 0 0.68 0 0 Z " fill="#2D9FC9" transform="translate(275,157)"/>
<path d="M0 0 C1.32 0.33 2.64 0.66 4 1 C2.35 2.65 0.7 4.3 -1 6 C-1.33 4.68 -1.66 3.36 -2 2 C-1.34 2 -0.68 2 0 2 C0 1.34 0 0.68 0 0 Z " fill="#2F9EC7" transform="translate(279,152)"/>
<path d="M0 0 C2.97 0 5.94 0 9 0 C5.81237635 2.12508244 3.73487777 2.5020163 0 3 C0 2.01 0 1.02 0 0 Z " fill="#3491BB" transform="translate(100,146)"/>
</svg>
